<?xml version="1.0" encoding="utf-8"?>
<!-- Generator: Adobe Illustrator 25.2.3, SVG Export Plug-In . SVG Version: 6.00 Build 0)  -->
<svg version="1.1" id="Wht" xmlns="http://www.w3.org/2000/svg" xmlns:xlink="http://www.w3.org/1999/xlink" x="0px" y="0px" width="100px" height="48px"
	 viewBox="0 0 735 209" style="enable-background:new 0 0 735 209;" xml:space="preserve">
<style type="text/css">
	.st0{fill:none;stroke:#000000;stroke-width:8;stroke-linecap:round;stroke-linejoin:round;}
	.st1{fill:none;stroke:#000000;stroke-width:8;stroke-linejoin:round;}
	.st2{fill-rule:evenodd;clip-rule:evenodd;}
</style>
<g id="logo_00">
	<g>
		<path class="st0" d="M106,182V19L95,6L72,7L39,23l2,17l-17,3L7,92l9,9L6,111l11,23l40-3"/>
		<path class="st0" d="M106,182l-12,20l-9-2l-11,2l-17-8l49-74"/>
		<path class="st0" d="M59,131l-31,22l22,25l44,24"/>
		<path class="st0" d="M18,135l19,10"/>
		<path class="st0" d="M15,101l73,44l18,23"/>
		<path class="st0" d="M105,182l-40,2"/>
		<path class="st0" d="M41,39l17,31l4,31l-1,81"/>
		<path class="st0" d="M15,101l42-32l47-22"/>
		<path class="st0" d="M16,99l25-58L82,8"/>
		<path class="st0" d="M41,40l46,15l19,12"/>
		<path class="st0" d="M17,100h44l27-44l9-44"/>
		<path class="st0" d="M105,90l-43,11l27,43l3,38"/>
	</g>
	<path class="st1" d="M107.6,183h9.8"/>
	<path id="Shape_13_copy" class="st1" d="M107.6,167h9.8"/>
	<path id="Shape_13_copy_2" class="st1" d="M107.6,122h9.8"/>
	<path id="Shape_13_copy_3" class="st1" d="M107.6,90h9.8"/>
	<path id="Shape_13_copy_4" class="st1" d="M107.6,67h9.8"/>
	<path id="Shape_13_copy_5" class="st1" d="M107.6,47h9.8"/>
	<g id="Group_1_copy_2">
		<path class="st0" d="M118,182.4V19.1l11-13l23,1l33,16l-2,17l17,3l17,49.1l-9,9l10,10l-11,23l-40.1-3"/>
		<path class="st0" d="M118,182.4l12,20l9-2l11,2l17-8L118,120.3"/>
		<path class="st0" d="M165.1,131.3l31,22l-22,25l-44.1,24"/>
		<path class="st0" d="M206.1,135.3l-19,10"/>
		<path class="st0" d="M209.1,101.3L136,145.4l-18,23"/>
		<path class="st0" d="M119,182.4l40.1,2"/>
		<path class="st0" d="M183.1,39.2l-17,31.1l-4,31.1l1,81.1"/>
		<path class="st0" d="M209.1,101.3l-42.1-32.1l-47.1-22"/>
		<path class="st0" d="M208.1,99.3l-25-58.1L142,8.1"/>
		<path class="st0" d="M183.1,40.2l-46.1,15l-19,12"/>
		<path class="st0" d="M207.1,100.3h-44.1l-27-44.1l-9-44.1"/>
		<path class="st0" d="M119,90.3l43.1,11l-27,43.1l-3,38.1"/>
	</g>
</g>
<path id="holdings" class="st2" d="M303.6,175.7v-65.5h-16.4v25.6h-25.9v-25.6h-16.4v65.5h16.4v-26.3h25.9v26.3L303.6,175.7
	L303.6,175.7z M381.2,142.9c0-16.8-11.4-34.3-35.1-34.3s-35.1,17.5-35.1,34.3s11.4,34.3,35.1,34.3S381.2,159.7,381.2,142.9z
	 M364.4,142.9c0,11-6,20.8-18.3,20.8s-18.3-9.8-18.3-20.8s6-20.9,18.3-20.9S364.4,131.9,364.4,142.9L364.4,142.9z M436.5,175.7
	v-13.7h-31.4v-51.8h-16.4v65.5L436.5,175.7L436.5,175.7z M503.3,142.6c0-10.1-3.6-18.8-10.4-24.8c-8.3-7.2-19.4-7.6-30.4-7.6h-21.4
	v65.5h21.4c8.2,0,20.7,0,30.4-8.5C499.6,161.3,503.3,152.6,503.3,142.6z M486.5,142.6c0,5.9-1.6,11.4-5.3,15
	c-4.5,4.5-10.2,4.7-16.2,4.7h-7.4v-39h7.4c6.1,0,12.1,0,16.2,4.2C485.1,131.5,486.5,137.1,486.5,142.6L486.5,142.6z M527.2,175.7
	v-65.5h-16.4v65.5H527.2z M596.3,175.7v-65.5h-15.4v40.1l-27.1-40.1h-16.3v65.5h15.4v-40.1l27.1,40.1L596.3,175.7L596.3,175.7z
	 M669.2,175.7V138h-30.4v12.6h17c0,8.8-8,13.1-16.3,13.1c-11.8,0-18.9-9.2-18.9-20.9c0-10.9,6.5-20.7,19.3-20.7
	c6.2,0,12.2,2.5,16.4,7.1l9.6-9.6c-1.3-1.5-9.4-11-26.6-11c-23.1,0-35.5,15.9-35.5,34.4c0,18.7,11.8,34.2,32.8,34.2
	c12.5,0,19.7-7,20.2-7.6l0.2,6.1L669.2,175.7L669.2,175.7z M732.2,156.2c0-28.5-40.5-16.7-40.5-28.3c0-3.7,3.9-6.2,10.8-6.2
	c12.5,0,19.3,6.5,19.9,7l9.1-10.4c-1.2-1.2-9.2-9.7-28.9-9.7c-16.3,0-27.2,8.2-27.2,20.1c0,27.1,40.3,16.4,40.3,28.4
	c0,4.6-5.1,6.7-12.8,6.7c-7.5,0.1-14.8-2.4-20.6-7.2l-8.7,11.1c1.2,1.2,10.3,9.5,29.3,9.5C719.5,177.2,732.2,169.8,732.2,156.2
	L732.2,156.2z"/>
<path id="Big" class="st2" d="M299.1,76.1c0-7-3.7-13.4-12.8-15.8c2-0.9,10.2-4.8,10.2-16.3c0.1-4.3-1.5-8.4-4.4-11.5
	c-5.3-5.5-13.6-5.5-22.5-5.5H245v69h23.9c10.3,0,20.1-0.3,25.8-7.3C297.6,85.1,299.1,80.7,299.1,76.1z M287.9,45.8
	c0,10.8-9.2,11.6-17.4,11.6h-17.1V34.3h16.5C277.9,34.3,287.9,34.3,287.9,45.8z M290.2,76.2c0,13.2-12.6,12.5-22.3,12.5h-14.5V64.5
	h16.9C280.4,64.5,290.2,65.1,290.2,76.2L290.2,76.2z M320.5,96v-69h-8.5v69L320.5,96L320.5,96z M396.8,96V59.7h-30v7.5H389v2
	c0,6.9-4.2,20.7-22.1,20.7c-17.8,0-24.7-13.3-24.7-28.4c0-14.8,8-28.4,25.3-28.4c14,0,20.4,8.5,21.4,9.6l5.8-4.9
	c-0.9-1.4-8.5-12.4-27.2-12.4c-21.9,0-34.3,15.9-34.3,36c0,21,11.3,36.2,32.4,36.2c17.2,0,22.8-9.5,23.7-10.9l0.2,9.3L396.8,96
	L396.8,96z"/>
<path id="brain" class="st2" d="M502.9,76.1c0-7-3.7-13.4-12.8-15.8c2-0.9,10.2-4.8,10.2-16.3c0.1-4.3-1.5-8.4-4.4-11.5
	c-5.3-5.5-13.6-5.5-22.5-5.5h-24.6v69h23.9c10.3,0,20.1-0.3,25.8-7.3C501.4,85.1,502.9,80.7,502.9,76.1z M491.7,45.8
	c0,10.8-9.2,11.6-17.4,11.6h-17.1V34.3h16.5C481.8,34.3,491.7,34.3,491.7,45.8z M494.1,76.2c0,13.2-12.6,12.5-22.3,12.5h-14.5V64.5
	h16.9C484.2,64.5,494.1,65.1,494.1,76.2L494.1,76.2z M572.1,96l-21.5-29.6c1.2-0.3,17.6-3.1,17.6-19.7c0.1-5.1-1.9-10.1-5.6-13.7
	c-5.5-5.5-13.4-5.9-22.2-5.9h-24.7v69h8.5V67.2h17L561.9,96C561.9,96,572.1,96,572.1,96z M559.7,47.1c0,12.3-11.4,13-21.7,13h-13.7
	V34.2h14.4c6.5,0,13.6,0.1,17.9,4.4C558.7,40.6,559.7,43.2,559.7,47.1z M642.1,96l-28.7-69h-10.2l-28.7,69h9.1l7.4-18.3h34.3
	l7.4,18.3L642.1,96L642.1,96z M622.3,70.4h-28.3l14.1-34.8L622.3,70.4z M659.8,96v-69h-8.5v69L659.8,96L659.8,96z M732.2,96v-69
	h-7.9v55.2l-39.9-55.2h-8.8v69h7.9V40.3L723.9,96L732.2,96L732.2,96z"/>
</svg>
