<svg  x="0px" y="0px" width="130px" height="48px" viewBox="0 0 206 27" fill="none" xmlns="http://www.w3.org/2000/svg">
<path fill-rule="evenodd" clip-rule="evenodd" d="M202.099 18.7937C203.031 18.745 203.947 19.0462 204.666 19.6375L204.675 19.6656L205.553 18.6624C204.584 17.8303 203.332 17.3947 202.052 17.4437C201.457 17.4258 200.864 17.5082 200.297 17.6874C199.766 17.8533 199.29 18.1577 198.919 18.5687C198.531 18.9937 198.325 19.5517 198.343 20.125C198.327 20.5424 198.432 20.9557 198.645 21.3157C198.859 21.6503 199.167 21.9146 199.532 22.0751C199.894 22.2553 200.274 22.3998 200.665 22.5064C201.102 22.6157 201.547 22.694 201.995 22.7408C202.646 22.7911 203.284 22.9496 203.883 23.2096C204.085 23.2804 204.256 23.4174 204.369 23.598C204.483 23.7786 204.531 23.9921 204.506 24.2033C204.512 24.4344 204.448 24.6621 204.322 24.8562C204.195 25.0504 204.013 25.2019 203.798 25.2909C203.293 25.5241 202.741 25.6396 202.184 25.6284C201.567 25.6623 200.951 25.5529 200.384 25.3088C199.817 25.0647 199.315 24.6925 198.919 24.2221L198.041 25.2721C198.542 25.8583 199.174 26.3191 199.887 26.6172C200.601 26.9153 201.374 27.0422 202.146 26.9878C203.109 27.0241 204.062 26.7761 204.883 26.2753C205.23 26.0654 205.515 25.7689 205.711 25.4152C205.906 25.0615 206.005 24.663 205.997 24.2596C206.018 23.8665 205.934 23.4747 205.751 23.1252C205.607 22.8292 205.401 22.5671 205.147 22.3564C204.865 22.1427 204.545 21.9837 204.204 21.8876C203.87 21.7761 203.529 21.6853 203.184 21.6157C202.911 21.5688 202.552 21.5219 202.118 21.4751C200.608 21.2969 199.834 20.8469 199.834 20.125C199.827 19.9166 199.882 19.7109 199.993 19.5339C200.104 19.3569 200.266 19.2167 200.457 19.1312C200.965 18.8786 201.531 18.7623 202.099 18.7937ZM195.88 25.2628L195.879 25.2637L194.87 24.344C194.533 24.7313 194.096 25.0198 193.605 25.1784C193.078 25.3789 192.519 25.4837 191.954 25.4878C191.134 25.5084 190.333 25.243 189.689 24.7378C189.385 24.4965 189.134 24.1954 188.952 23.8534C188.77 23.5114 188.661 23.1359 188.632 22.7502L196.437 22.7502C196.566 22.0511 196.538 21.3324 196.355 20.6453C196.173 19.9581 195.84 19.3195 195.38 18.775C194.922 18.3093 194.369 17.9456 193.759 17.708C193.149 17.4704 192.495 17.3643 191.841 17.3968C191.21 17.3771 190.582 17.4849 189.995 17.7137C189.408 17.9426 188.873 18.2877 188.424 18.7281C187.981 19.174 187.634 19.7048 187.403 20.2883C187.173 20.8717 187.064 21.4956 187.084 22.122C187.055 22.7593 187.159 23.3957 187.39 23.9911C187.621 24.5865 187.973 25.128 188.424 25.5816C188.889 26.0204 189.437 26.362 190.037 26.5859C190.637 26.8098 191.276 26.9114 191.916 26.8848C192.675 26.8878 193.428 26.7478 194.134 26.4722C194.809 26.2226 195.41 25.8068 195.879 25.2637L195.899 25.2815L195.88 25.2628ZM194.936 21.5127C194.942 21.1332 194.866 20.7569 194.713 20.4091C194.56 20.0614 194.333 19.7503 194.049 19.4969C193.422 18.998 192.633 18.7445 191.831 18.7844C191.051 18.7688 190.29 19.0241 189.68 19.5063C189.066 19.9999 188.672 20.7141 188.585 21.4939L194.936 21.4939L194.936 21.5127ZM181.214 17.5843L181.216 17.6031L179.818 17.6031L179.818 26.7254L181.337 26.7254L181.337 21.6439C181.324 21.2798 181.387 20.917 181.522 20.5782C181.656 20.2394 181.86 19.9319 182.12 19.675C182.625 19.1859 183.303 18.9132 184.008 18.9156C184.581 18.9161 185.14 19.0894 185.612 19.4125L186.301 18.1187C185.691 17.6456 184.932 17.4031 184.159 17.4343C183.589 17.3849 183.017 17.5024 182.514 17.7723C182.011 18.0423 181.598 18.4528 181.327 18.9531L181.216 17.6031L181.224 17.6031L181.214 17.5843ZM146.418 25.2634L146.419 25.2626L146.438 25.2813L146.418 25.2634ZM146.418 25.2634C145.951 25.8084 145.35 26.2246 144.673 26.472C143.97 26.7475 143.22 26.8875 142.465 26.8845C141.824 26.9145 141.184 26.8143 140.584 26.5902C139.983 26.3662 139.435 26.0229 138.973 25.5814C138.52 25.1288 138.167 24.5875 137.936 23.9918C137.705 23.3962 137.602 22.7593 137.633 22.1218C137.611 21.4951 137.718 20.8706 137.949 20.2869C138.179 19.7031 138.528 19.1725 138.973 18.7279C139.421 18.2866 139.955 17.9409 140.543 17.712C141.13 17.4831 141.758 17.3758 142.389 17.3966C143.044 17.3641 143.698 17.4702 144.308 17.7078C144.918 17.9454 145.47 18.3091 145.928 18.7748C146.388 19.319 146.721 19.958 146.902 20.6454C147.083 21.3328 147.108 22.0516 146.976 22.75L139.171 22.75C139.201 23.1364 139.312 23.5124 139.495 23.8545C139.679 24.1965 139.931 24.4972 140.237 24.7376C140.879 25.2457 141.682 25.5114 142.502 25.4876C143.064 25.4849 143.621 25.38 144.144 25.1782C144.638 25.0212 145.079 24.7325 145.419 24.3438L146.418 25.2634ZM145.303 20.4081C145.458 20.7558 145.536 21.1324 145.532 21.5125L145.532 21.4937L139.171 21.4937C139.262 20.7127 139.658 19.9987 140.275 19.5061C140.886 19.0239 141.647 18.7686 142.427 18.7842C143.226 18.744 144.012 18.9977 144.635 19.4967C144.921 19.7497 145.149 20.0604 145.303 20.4081ZM131.234 24.8406L126.789 13.7964L124.987 13.7964L130.375 26.7626L132.121 26.7626L137.491 13.7964L135.707 13.7964L131.234 24.8406ZM150.76 17.5842L149.363 17.5842L149.363 26.7252L150.873 26.7252L150.873 21.8312C150.852 21.0525 151.136 20.296 151.666 19.7218C151.923 19.4431 152.237 19.2222 152.587 19.0734C152.937 18.9247 153.315 18.8517 153.695 18.8593C154.071 18.8392 154.446 18.8964 154.799 19.027C155.151 19.1577 155.472 19.3591 155.743 19.6187C156 19.8994 156.197 20.2279 156.325 20.5852C156.453 20.9424 156.509 21.3213 156.489 21.7L156.489 26.7252L158.008 26.7252L158.008 21.6813C158.037 21.1173 157.953 20.5531 157.76 20.0219C157.567 19.4907 157.27 19.003 156.885 18.5874C156.505 18.2103 156.05 17.915 155.55 17.7199C155.05 17.5247 154.515 17.4339 153.978 17.4529C153.362 17.4384 152.753 17.5766 152.204 17.8548C151.655 18.1331 151.185 18.5427 150.836 19.0468L150.76 17.5842ZM163.227 17.6218L166.058 17.6218L166.058 18.9156L163.227 18.9156L163.227 23.7346C163.227 24.8971 163.718 25.4878 164.68 25.4878C165.129 25.4779 165.569 25.3623 165.964 25.1503L166.407 26.4066C165.849 26.6737 165.242 26.8238 164.624 26.8472C162.692 26.8847 161.726 25.8472 161.726 23.7346L161.726 18.9156L159.886 18.9156L159.886 17.6218L161.726 17.6218L161.726 15.1092L163.246 14.9404L163.227 17.6218ZM175.307 25.2626L175.382 26.7251L176.779 26.7251L176.779 17.6028L175.25 17.6028L175.25 22.4968C175.272 23.2711 174.991 24.0236 174.467 24.5969C174.208 24.8765 173.892 25.0987 173.541 25.249C173.19 25.3992 172.811 25.4741 172.428 25.4688C172.053 25.4888 171.677 25.4317 171.325 25.301C170.972 25.1704 170.651 24.969 170.38 24.7094C170.126 24.4276 169.93 24.0987 169.804 23.7416C169.677 23.3844 169.623 23.0061 169.644 22.6281L169.644 17.6028L168.115 17.6028L168.115 22.6374C168.084 23.2001 168.165 23.7635 168.354 24.2947C168.544 24.8258 168.838 25.3142 169.22 25.7314C169.594 26.1107 170.045 26.4076 170.542 26.603C171.04 26.7984 171.573 26.8879 172.107 26.8657C172.732 26.877 173.349 26.7369 173.907 26.4575C174.464 26.1782 174.945 25.768 175.307 25.2626Z" fill="#9494A3"/>
<path fill-rule="evenodd" clip-rule="evenodd" d="M110.265 13.8706L99.2144 0.023324L93.1568 0.0233238L93.1568 26.4349L100.756 26.4116L100.764 12.5877L111.846 26.4349L117.872 26.4349L117.872 0L110.265 -3.30339e-07L110.265 13.8706ZM85.5574 -1.40326e-06L85.5574 26.4349L77.9502 26.4349L77.9502 -1.7336e-06L85.5574 -1.40326e-06ZM72.057 -1.98951e-06L63.2055 -2.37389e-06L57.9696 7.07523L52.7808 -2.82657e-06L43.9292 -3.21095e-06L53.5478 13.0853L43.7336 26.4427L52.5851 26.4427L57.9696 19.1031L63.4011 26.4427L72.2527 26.4427L62.3993 13.0853L72.057 -1.98951e-06ZM38.036 26.4349L38.036 -9.04037e-08L30.4288 -4.18576e-07L30.4288 26.4349L38.036 26.4349ZM20.6537 12.409L20.4268 12.5567L20.6694 12.6734C21.0842 12.8755 24.7078 14.7804 24.7078 18.9556C24.7078 23.3329 21.3737 26.4429 16.6153 26.4429L5.22423e-05 26.4429L5.34054e-05 0.00797305L15.9344 0.00797373C20.4033 0.00797392 23.6434 3.00912 23.6434 7.15318C23.5961 8.20106 23.3007 9.22311 22.7813 10.1363C22.2618 11.0495 21.5329 11.8281 20.6537 12.409ZM13.9544 5.55927L7.69333 5.55927L7.69333 10.1776L13.9544 10.1776C15.8875 10.1776 16.5684 8.99581 16.5684 7.89176C16.5684 6.49227 15.5197 5.55927 13.9544 5.55927ZM7.69333 20.9771L13.9935 20.9771L13.9935 20.9848C15.7231 20.9848 16.9362 19.9352 16.9362 18.3336C16.9362 16.732 15.7779 15.6979 13.9935 15.6979L7.69333 15.6979L7.69333 20.9771Z" fill="#2B4ADF"/>
</svg>
