<svg width="32" height="32" viewBox="0 0 32 32" fill="none" xmlns="http://www.w3.org/2000/svg">
<path d="M25.7397 6.75564C25.7397 6.75564 25.7397 6.75564 25.6921 6.75564C23.8818 5.91168 21.9762 5.34904 20.023 5.02084C19.9754 4.97395 19.9278 5.02084 19.9278 5.02084C19.6419 5.4897 19.4037 6.00546 19.2132 6.47432C17.0694 6.14612 14.9257 6.14612 12.7819 6.47432C12.5914 6.00546 12.3532 5.4897 12.0674 5.02084C12.0674 5.02084 12.0197 4.97395 11.9721 5.02084C10.0189 5.34904 8.11335 5.91168 6.30307 6.75564C6.25543 6.75564 6.25543 6.75564 6.25543 6.75564C2.63488 12.1007 1.63447 17.3051 2.11086 22.4627C2.11086 22.4627 2.11086 22.5096 2.1585 22.5096C4.2546 24.0568 6.63654 25.229 9.1614 25.9792C9.1614 26.026 9.20904 25.9792 9.25668 25.9792C9.7807 25.229 10.2571 24.4788 10.6858 23.6817C10.6858 23.6348 10.6858 23.5879 10.6382 23.5411C9.87598 23.2597 9.11376 22.9315 8.44682 22.5096C8.39918 22.5096 8.35154 22.4158 8.44682 22.3689C8.58973 22.2751 8.73265 22.1813 8.87557 22.0407C8.87557 22.0407 8.92321 22.0407 8.97084 22.0407C13.5442 24.1037 18.4986 24.1037 23.0243 22.0407C23.0719 22.0407 23.0719 22.0407 23.1196 22.0407C23.2625 22.1813 23.4054 22.2751 23.5483 22.3689C23.596 22.4158 23.596 22.5096 23.5483 22.5096C22.8337 22.9315 22.1192 23.2597 21.3569 23.5411C21.3093 23.5879 21.3093 23.6348 21.3093 23.6817C21.738 24.4788 22.2144 25.229 22.7385 25.9792C22.7861 25.9792 22.7861 26.026 22.8337 25.9792C25.3586 25.229 27.7405 24.0568 29.8366 22.5096C29.8843 22.5096 29.8843 22.4627 29.8843 22.4627C30.4559 16.5081 28.8839 11.3505 25.7397 6.75564ZM11.3528 19.3213C9.97126 19.3213 8.82793 18.0553 8.82793 16.5549C8.82793 15.0077 9.97126 13.7886 11.3528 13.7886C12.7819 13.7886 13.8776 15.0077 13.8776 16.5549C13.8776 18.0553 12.7343 19.3213 11.3528 19.3213ZM20.6423 19.3213C19.2608 19.3213 18.1651 18.0553 18.1651 16.5549C18.1651 15.0077 19.2608 13.7886 20.6423 13.7886C22.0715 13.7886 23.2148 15.0077 23.1672 16.5549C23.1672 18.0553 22.0715 19.3213 20.6423 19.3213Z" fill="#E3E8EE"/>
</svg>
