<svg width="991" height="521" viewBox="0 0 991 521" fill="none" xmlns="http://www.w3.org/2000/svg">
<path opacity="0.25" d="M496 0L496 521" stroke="#4C5A7E" stroke-width="2" stroke-dasharray="4 4"/>
<path d="M457.293 152.707C457.683 153.098 458.317 153.098 458.707 152.707L465.071 146.343C465.462 145.953 465.462 145.319 465.071 144.929C464.681 144.538 464.047 144.538 463.657 144.929L458 150.586L452.343 144.929C451.953 144.538 451.319 144.538 450.929 144.929C450.538 145.319 450.538 145.953 450.929 146.343L457.293 152.707ZM133 210V125H131V210H133ZM164 94H426V92H164V94ZM457 125V152H459V125H457ZM426 94C443.121 94 457 107.879 457 125H459C459 106.775 444.225 92 426 92V94ZM133 125C133 107.879 146.879 94 164 94V92C145.775 92 131 106.775 131 125H133Z" fill="#4C5A7E"/>
<path d="M533.707 375.293C533.317 374.902 532.683 374.902 532.293 375.293L525.929 381.657C525.538 382.047 525.538 382.681 525.929 383.071C526.319 383.462 526.953 383.462 527.343 383.071L533 377.414L538.657 383.071C539.047 383.462 539.681 383.462 540.071 383.071C540.462 382.681 540.462 382.047 540.071 381.657L533.707 375.293ZM858 328L858 413L860 413L860 328L858 328ZM827 444L565 444L565 446L827 446L827 444ZM534 413L534 376L532 376L532 413L534 413ZM565 444C547.879 444 534 430.121 534 413L532 413C532 431.225 546.775 446 565 446L565 444ZM858 413C858 430.121 844.121 444 827 444L827 446C845.225 446 860 431.225 860 413L858 413Z" fill="#4C5A7E"/>
<path d="M132.707 345.293C132.317 344.902 131.683 344.902 131.293 345.293L124.929 351.657C124.538 352.047 124.538 352.681 124.929 353.071C125.319 353.462 125.953 353.462 126.343 353.071L132 347.414L137.657 353.071C138.047 353.462 138.681 353.462 139.071 353.071C139.462 352.681 139.462 352.047 139.071 351.657L132.707 345.293ZM457 328L457 413L459 413L459 328L457 328ZM426 444L164 444L164 446L426 446L426 444ZM133 413L133 346L131 346L131 413L133 413ZM164 444C146.879 444 133 430.121 133 413L131 413C131 431.225 145.775 446 164 446L164 444ZM457 413C457 430.121 443.121 444 426 444L426 446C444.225 446 459 431.225 459 413L457 413Z" fill="#4C5A7E"/>
<path d="M858.293 182.707C858.683 183.098 859.317 183.098 859.707 182.707L866.071 176.343C866.462 175.953 866.462 175.32 866.071 174.929C865.681 174.538 865.047 174.538 864.657 174.929L859 180.586L853.343 174.929C852.953 174.538 852.319 174.538 851.929 174.929C851.538 175.32 851.538 175.953 851.929 176.343L858.293 182.707ZM534 210L534 125L532 125L532 210L534 210ZM565 94L827 94.0001L827 92.0001L565 92L565 94ZM858 125L858 182L860 182L860 125L858 125ZM827 94.0001C844.121 94.0001 858 107.879 858 125L860 125C860 106.775 845.225 92.0001 827 92.0001L827 94.0001ZM534 125C534 107.879 547.879 94 565 94L565 92C546.775 92 532 106.775 532 125L534 125Z" fill="#4C5A7E"/>
<g filter="url(#filter0_dd_313_1495)">
<rect x="32" y="205" width="200" height="122" rx="24" fill="white"/>
</g>
<g filter="url(#filter1_dd_313_1495)">
<rect x="759" y="205" width="200" height="122" rx="24" fill="white"/>
</g>
<path d="M181.533 20.928H184.173C185.661 20.928 186.885 20.464 187.845 19.536C188.805 18.608 189.285 17.264 189.285 15.504C189.285 13.744 188.805 12.4 187.845 11.472C186.885 10.528 185.669 10.056 184.197 10.056H181.533V20.928ZM184.293 24H178.221V6.984H184.317C186.797 6.984 188.813 7.744 190.365 9.264C191.933 10.784 192.717 12.864 192.717 15.504C192.717 18.128 191.933 20.2 190.365 21.72C188.797 23.24 186.773 24 184.293 24ZM197.747 16.752H203.027C202.995 16.096 202.755 15.544 202.307 15.096C201.875 14.648 201.235 14.424 200.387 14.424C199.619 14.424 198.995 14.664 198.515 15.144C198.035 15.624 197.779 16.16 197.747 16.752ZM203.339 19.824L206.003 20.616C205.683 21.704 205.051 22.6 204.107 23.304C203.179 24.008 202.019 24.36 200.627 24.36C198.931 24.36 197.491 23.792 196.307 22.656C195.123 21.504 194.531 19.968 194.531 18.048C194.531 16.224 195.107 14.736 196.259 13.584C197.411 12.416 198.771 11.832 200.339 11.832C202.163 11.832 203.587 12.376 204.611 13.464C205.651 14.552 206.171 16.048 206.171 17.952C206.171 18.08 206.163 18.224 206.147 18.384C206.147 18.544 206.147 18.672 206.147 18.768L206.123 18.936H197.675C197.707 19.704 198.011 20.344 198.587 20.856C199.163 21.368 199.851 21.624 200.651 21.624C202.011 21.624 202.907 21.024 203.339 19.824ZM213.988 14.784C213.14 14.784 212.428 15.08 211.852 15.672C211.276 16.264 210.988 17.072 210.988 18.096C210.988 19.12 211.276 19.936 211.852 20.544C212.444 21.136 213.164 21.432 214.012 21.432C214.764 21.432 215.364 21.24 215.812 20.856C216.26 20.456 216.564 19.984 216.724 19.44L219.532 20.376C219.244 21.464 218.62 22.4 217.66 23.184C216.7 23.968 215.484 24.36 214.012 24.36C212.252 24.36 210.772 23.768 209.572 22.584C208.388 21.384 207.796 19.888 207.796 18.096C207.796 16.288 208.38 14.792 209.548 13.608C210.732 12.424 212.188 11.832 213.916 11.832C215.42 11.832 216.652 12.224 217.612 13.008C218.572 13.776 219.188 14.712 219.46 15.816L216.604 16.776C216.22 15.448 215.348 14.784 213.988 14.784ZM224.091 16.752H229.371C229.339 16.096 229.099 15.544 228.651 15.096C228.219 14.648 227.579 14.424 226.731 14.424C225.963 14.424 225.339 14.664 224.859 15.144C224.379 15.624 224.123 16.16 224.091 16.752ZM229.683 19.824L232.347 20.616C232.027 21.704 231.395 22.6 230.451 23.304C229.523 24.008 228.363 24.36 226.971 24.36C225.275 24.36 223.835 23.792 222.651 22.656C221.467 21.504 220.875 19.968 220.875 18.048C220.875 16.224 221.451 14.736 222.603 13.584C223.755 12.416 225.115 11.832 226.683 11.832C228.507 11.832 229.931 12.376 230.955 13.464C231.995 14.552 232.515 16.048 232.515 17.952C232.515 18.08 232.507 18.224 232.491 18.384C232.491 18.544 232.491 18.672 232.491 18.768L232.467 18.936H224.019C224.051 19.704 224.355 20.344 224.931 20.856C225.507 21.368 226.195 21.624 226.995 21.624C228.355 21.624 229.251 21.024 229.683 19.824ZM238.22 17.208V24H235.028V12.192H238.124V13.656C238.46 13.08 238.94 12.64 239.564 12.336C240.188 12.032 240.844 11.88 241.532 11.88C242.924 11.88 243.98 12.32 244.7 13.2C245.436 14.064 245.804 15.184 245.804 16.56V24H242.612V17.112C242.612 16.408 242.428 15.84 242.06 15.408C241.708 14.976 241.164 14.76 240.428 14.76C239.756 14.76 239.22 14.992 238.82 15.456C238.42 15.92 238.22 16.504 238.22 17.208ZM252.98 8.664V12.192H255.356V15.024H252.98V19.968C252.98 20.464 253.092 20.816 253.316 21.024C253.54 21.232 253.892 21.336 254.372 21.336C254.804 21.336 255.132 21.304 255.356 21.24V23.88C254.892 24.072 254.292 24.168 253.556 24.168C252.404 24.168 251.492 23.848 250.82 23.208C250.148 22.552 249.812 21.656 249.812 20.52V15.024H247.676V12.192H248.276C248.868 12.192 249.316 12.024 249.62 11.688C249.94 11.336 250.1 10.88 250.1 10.32V8.664H252.98ZM265.103 12.144V15.36C264.783 15.296 264.463 15.264 264.143 15.264C263.231 15.264 262.495 15.528 261.935 16.056C261.375 16.568 261.095 17.416 261.095 18.6V24H257.903V12.192H260.999V13.944C261.575 12.712 262.695 12.096 264.359 12.096C264.535 12.096 264.783 12.112 265.103 12.144ZM266.699 20.784C266.699 19.776 267.027 18.968 267.683 18.36C268.339 17.752 269.187 17.368 270.227 17.208L273.131 16.776C273.723 16.696 274.019 16.416 274.019 15.936C274.019 15.488 273.843 15.12 273.491 14.832C273.155 14.544 272.667 14.4 272.027 14.4C271.355 14.4 270.819 14.584 270.419 14.952C270.035 15.32 269.819 15.776 269.771 16.32L266.939 15.72C267.051 14.696 267.555 13.792 268.451 13.008C269.347 12.224 270.531 11.832 272.003 11.832C273.763 11.832 275.059 12.256 275.891 13.104C276.723 13.936 277.139 15.008 277.139 16.32V22.128C277.139 22.832 277.187 23.456 277.283 24H274.355C274.275 23.648 274.235 23.176 274.235 22.584C273.483 23.752 272.323 24.336 270.755 24.336C269.539 24.336 268.555 23.984 267.803 23.28C267.067 22.576 266.699 21.744 266.699 20.784ZM271.427 21.96C272.179 21.96 272.795 21.752 273.275 21.336C273.771 20.904 274.019 20.2 274.019 19.224V18.696L271.355 19.104C270.379 19.248 269.891 19.744 269.891 20.592C269.891 20.976 270.027 21.304 270.299 21.576C270.571 21.832 270.947 21.96 271.427 21.96ZM283.548 24H280.356V6.624H283.548V24ZM290.158 24H286.966V12.192H290.158V24ZM286.582 8.328C286.582 7.784 286.774 7.32 287.158 6.936C287.542 6.536 288.006 6.336 288.55 6.336C289.094 6.336 289.558 6.528 289.942 6.912C290.326 7.296 290.518 7.768 290.518 8.328C290.518 8.856 290.326 9.312 289.942 9.696C289.558 10.08 289.094 10.272 288.55 10.272C288.006 10.272 287.542 10.08 287.158 9.696C286.774 9.312 286.582 8.856 286.582 8.328ZM302.527 24H292.759V21.192L298.351 14.952H292.903V12.192H302.431V14.856L296.671 21.216H302.527V24ZM307.387 16.752H312.667C312.635 16.096 312.395 15.544 311.947 15.096C311.515 14.648 310.875 14.424 310.027 14.424C309.259 14.424 308.635 14.664 308.155 15.144C307.675 15.624 307.419 16.16 307.387 16.752ZM312.979 19.824L315.643 20.616C315.323 21.704 314.691 22.6 313.747 23.304C312.819 24.008 311.659 24.36 310.267 24.36C308.571 24.36 307.131 23.792 305.947 22.656C304.763 21.504 304.171 19.968 304.171 18.048C304.171 16.224 304.747 14.736 305.899 13.584C307.051 12.416 308.411 11.832 309.979 11.832C311.803 11.832 313.227 12.376 314.251 13.464C315.291 14.552 315.811 16.048 315.811 17.952C315.811 18.08 315.803 18.224 315.787 18.384C315.787 18.544 315.787 18.672 315.787 18.768L315.763 18.936H307.315C307.347 19.704 307.651 20.344 308.227 20.856C308.803 21.368 309.491 21.624 310.291 21.624C311.651 21.624 312.547 21.024 312.979 19.824ZM329.581 6.624V21.864C329.581 22.648 329.613 23.36 329.677 24H326.629C326.549 23.6 326.509 23.144 326.509 22.632C326.237 23.128 325.805 23.528 325.213 23.832C324.637 24.136 323.965 24.288 323.197 24.288C321.517 24.288 320.133 23.704 319.045 22.536C317.973 21.352 317.437 19.864 317.437 18.072C317.437 16.328 317.965 14.864 319.021 13.68C320.093 12.496 321.453 11.904 323.101 11.904C324.797 11.904 325.909 12.392 326.437 13.368V6.624H329.581ZM320.653 18.072C320.653 19.112 320.925 19.936 321.469 20.544C322.013 21.136 322.717 21.432 323.581 21.432C324.429 21.432 325.125 21.128 325.669 20.52C326.213 19.912 326.485 19.088 326.485 18.048C326.485 17.024 326.213 16.224 325.669 15.648C325.125 15.056 324.429 14.76 323.581 14.76C322.733 14.76 322.029 15.056 321.469 15.648C320.925 16.24 320.653 17.048 320.653 18.072ZM347.518 14.928H342.79V24H339.574V14.928H337.606V12.192H339.574V10.848C339.574 9.52 339.958 8.456 340.726 7.656C341.51 6.856 342.558 6.456 343.87 6.456C344.574 6.456 345.102 6.536 345.454 6.696V9.384C345.182 9.304 344.846 9.264 344.446 9.264C344.014 9.264 343.63 9.392 343.294 9.648C342.958 9.888 342.79 10.304 342.79 10.896V12.192H350.686V24H347.518V14.928ZM347.71 9.696C347.326 9.312 347.134 8.848 347.134 8.304C347.134 7.76 347.326 7.296 347.71 6.912C348.094 6.512 348.558 6.312 349.102 6.312C349.646 6.312 350.11 6.512 350.494 6.912C350.878 7.296 351.07 7.76 351.07 8.304C351.07 8.848 350.878 9.312 350.494 9.696C350.11 10.064 349.646 10.248 349.102 10.248C348.558 10.248 348.094 10.064 347.71 9.696ZM357.306 17.208V24H354.114V12.192H357.21V13.656C357.546 13.08 358.026 12.64 358.65 12.336C359.274 12.032 359.93 11.88 360.618 11.88C362.01 11.88 363.066 12.32 363.786 13.2C364.522 14.064 364.89 15.184 364.89 16.56V24H361.698V17.112C361.698 16.408 361.514 15.84 361.146 15.408C360.794 14.976 360.25 14.76 359.514 14.76C358.842 14.76 358.306 14.992 357.906 15.456C357.506 15.92 357.306 16.504 357.306 17.208ZM367.41 20.784C367.41 19.776 367.738 18.968 368.394 18.36C369.05 17.752 369.898 17.368 370.938 17.208L373.842 16.776C374.434 16.696 374.73 16.416 374.73 15.936C374.73 15.488 374.554 15.12 374.202 14.832C373.866 14.544 373.378 14.4 372.738 14.4C372.066 14.4 371.53 14.584 371.13 14.952C370.746 15.32 370.53 15.776 370.482 16.32L367.65 15.72C367.762 14.696 368.266 13.792 369.162 13.008C370.058 12.224 371.242 11.832 372.714 11.832C374.474 11.832 375.77 12.256 376.602 13.104C377.434 13.936 377.85 15.008 377.85 16.32V22.128C377.85 22.832 377.898 23.456 377.994 24H375.066C374.986 23.648 374.946 23.176 374.946 22.584C374.194 23.752 373.034 24.336 371.466 24.336C370.25 24.336 369.266 23.984 368.514 23.28C367.778 22.576 367.41 21.744 367.41 20.784ZM372.138 21.96C372.89 21.96 373.506 21.752 373.986 21.336C374.482 20.904 374.73 20.2 374.73 19.224V18.696L372.066 19.104C371.09 19.248 370.602 19.744 370.602 20.592C370.602 20.976 370.738 21.304 371.01 21.576C371.282 21.832 371.658 21.96 372.138 21.96ZM384.259 17.208V24H381.067V12.192H384.163V13.656C384.499 13.08 384.979 12.64 385.603 12.336C386.227 12.032 386.883 11.88 387.571 11.88C388.963 11.88 390.019 12.32 390.739 13.2C391.475 14.064 391.843 15.184 391.843 16.56V24H388.651V17.112C388.651 16.408 388.467 15.84 388.099 15.408C387.747 14.976 387.203 14.76 386.467 14.76C385.795 14.76 385.259 14.992 384.859 15.456C384.459 15.92 384.259 16.504 384.259 17.208ZM400.387 14.784C399.539 14.784 398.827 15.08 398.251 15.672C397.675 16.264 397.387 17.072 397.387 18.096C397.387 19.12 397.675 19.936 398.251 20.544C398.843 21.136 399.563 21.432 400.411 21.432C401.163 21.432 401.763 21.24 402.211 20.856C402.659 20.456 402.963 19.984 403.123 19.44L405.931 20.376C405.643 21.464 405.019 22.4 404.059 23.184C403.099 23.968 401.883 24.36 400.411 24.36C398.651 24.36 397.171 23.768 395.971 22.584C394.787 21.384 394.195 19.888 394.195 18.096C394.195 16.288 394.779 14.792 395.947 13.608C397.131 12.424 398.587 11.832 400.315 11.832C401.819 11.832 403.051 12.224 404.011 13.008C404.971 13.776 405.587 14.712 405.859 15.816L403.003 16.776C402.619 15.448 401.747 14.784 400.387 14.784ZM410.489 16.752H415.769C415.737 16.096 415.497 15.544 415.049 15.096C414.617 14.648 413.977 14.424 413.129 14.424C412.361 14.424 411.737 14.664 411.257 15.144C410.777 15.624 410.521 16.16 410.489 16.752ZM416.081 19.824L418.745 20.616C418.425 21.704 417.793 22.6 416.849 23.304C415.921 24.008 414.761 24.36 413.369 24.36C411.673 24.36 410.233 23.792 409.049 22.656C407.865 21.504 407.273 19.968 407.273 18.048C407.273 16.224 407.849 14.736 409.001 13.584C410.153 12.416 411.513 11.832 413.081 11.832C414.905 11.832 416.329 12.376 417.353 13.464C418.393 14.552 418.913 16.048 418.913 17.952C418.913 18.08 418.905 18.224 418.889 18.384C418.889 18.544 418.889 18.672 418.889 18.768L418.865 18.936H410.417C410.449 19.704 410.753 20.344 411.329 20.856C411.905 21.368 412.593 21.624 413.393 21.624C414.753 21.624 415.649 21.024 416.081 19.824Z" fill="#4C5A7E"/>
<path d="M627.652 10.128H622.276V24H618.94V10.128H613.564V6.984H627.652V10.128ZM633.005 17.064V24H629.813V6.624H633.005V13.176C633.725 12.312 634.789 11.88 636.197 11.88C637.637 11.88 638.725 12.32 639.461 13.2C640.213 14.064 640.589 15.184 640.589 16.56V24H637.397V17.112C637.397 16.408 637.213 15.84 636.845 15.408C636.493 14.976 635.949 14.76 635.213 14.76C634.557 14.76 634.029 14.976 633.629 15.408C633.245 15.84 633.037 16.392 633.005 17.064ZM646.157 16.752H651.437C651.405 16.096 651.165 15.544 650.717 15.096C650.285 14.648 649.645 14.424 648.797 14.424C648.029 14.424 647.405 14.664 646.925 15.144C646.445 15.624 646.189 16.16 646.157 16.752ZM651.749 19.824L654.413 20.616C654.093 21.704 653.461 22.6 652.517 23.304C651.589 24.008 650.429 24.36 649.037 24.36C647.341 24.36 645.901 23.792 644.717 22.656C643.533 21.504 642.941 19.968 642.941 18.048C642.941 16.224 643.517 14.736 644.669 13.584C645.821 12.416 647.181 11.832 648.749 11.832C650.573 11.832 651.997 12.376 653.021 13.464C654.061 14.552 654.581 16.048 654.581 17.952C654.581 18.08 654.573 18.224 654.557 18.384C654.557 18.544 654.557 18.672 654.557 18.768L654.533 18.936H646.085C646.117 19.704 646.421 20.344 646.997 20.856C647.573 21.368 648.261 21.624 649.061 21.624C650.421 21.624 651.317 21.024 651.749 19.824ZM670.224 12.144V15.36C669.904 15.296 669.584 15.264 669.264 15.264C668.352 15.264 667.616 15.528 667.056 16.056C666.496 16.568 666.216 17.416 666.216 18.6V24H663.024V12.192H666.12V13.944C666.696 12.712 667.816 12.096 669.48 12.096C669.656 12.096 669.904 12.112 670.224 12.144ZM674.68 16.752H679.96C679.928 16.096 679.688 15.544 679.24 15.096C678.808 14.648 678.168 14.424 677.32 14.424C676.552 14.424 675.928 14.664 675.448 15.144C674.968 15.624 674.712 16.16 674.68 16.752ZM680.272 19.824L682.936 20.616C682.616 21.704 681.984 22.6 681.04 23.304C680.112 24.008 678.952 24.36 677.56 24.36C675.864 24.36 674.424 23.792 673.24 22.656C672.056 21.504 671.464 19.968 671.464 18.048C671.464 16.224 672.04 14.736 673.192 13.584C674.344 12.416 675.704 11.832 677.272 11.832C679.096 11.832 680.52 12.376 681.544 13.464C682.584 14.552 683.104 16.048 683.104 17.952C683.104 18.08 683.096 18.224 683.08 18.384C683.08 18.544 683.08 18.672 683.08 18.768L683.056 18.936H674.608C674.64 19.704 674.944 20.344 675.52 20.856C676.096 21.368 676.784 21.624 677.584 21.624C678.944 21.624 679.84 21.024 680.272 19.824ZM684.898 20.784C684.898 19.776 685.226 18.968 685.882 18.36C686.538 17.752 687.386 17.368 688.426 17.208L691.33 16.776C691.922 16.696 692.218 16.416 692.218 15.936C692.218 15.488 692.042 15.12 691.69 14.832C691.354 14.544 690.866 14.4 690.226 14.4C689.554 14.4 689.018 14.584 688.618 14.952C688.234 15.32 688.018 15.776 687.97 16.32L685.138 15.72C685.25 14.696 685.754 13.792 686.65 13.008C687.546 12.224 688.73 11.832 690.202 11.832C691.962 11.832 693.258 12.256 694.09 13.104C694.922 13.936 695.338 15.008 695.338 16.32V22.128C695.338 22.832 695.386 23.456 695.482 24H692.554C692.474 23.648 692.434 23.176 692.434 22.584C691.682 23.752 690.522 24.336 688.954 24.336C687.738 24.336 686.754 23.984 686.002 23.28C685.266 22.576 684.898 21.744 684.898 20.784ZM689.626 21.96C690.378 21.96 690.994 21.752 691.474 21.336C691.97 20.904 692.218 20.2 692.218 19.224V18.696L689.554 19.104C688.578 19.248 688.09 19.744 688.09 20.592C688.09 20.976 688.226 21.304 688.498 21.576C688.77 21.832 689.146 21.96 689.626 21.96ZM701.748 24H698.556V6.624H701.748V24ZM711.501 18.288H704.541V15.456H711.501V18.288ZM720.791 12.192H724.151L726.695 19.8L728.879 12.192H732.047L728.351 24H725.159L722.399 15.936L719.687 24H716.447L712.679 12.192H716.039L718.223 19.776L720.791 12.192ZM736.903 20.568C737.495 21.16 738.207 21.456 739.039 21.456C739.871 21.456 740.575 21.16 741.151 20.568C741.743 19.976 742.039 19.152 742.039 18.096C742.039 17.04 741.743 16.216 741.151 15.624C740.575 15.032 739.871 14.736 739.039 14.736C738.207 14.736 737.495 15.032 736.903 15.624C736.327 16.216 736.039 17.04 736.039 18.096C736.039 19.152 736.327 19.976 736.903 20.568ZM734.599 13.608C735.783 12.424 737.263 11.832 739.039 11.832C740.815 11.832 742.287 12.424 743.455 13.608C744.639 14.792 745.231 16.288 745.231 18.096C745.231 19.904 744.639 21.4 743.455 22.584C742.287 23.768 740.815 24.36 739.039 24.36C737.263 24.36 735.783 23.768 734.599 22.584C733.431 21.4 732.847 19.904 732.847 18.096C732.847 16.288 733.431 14.792 734.599 13.608ZM754.951 12.144V15.36C754.631 15.296 754.311 15.264 753.991 15.264C753.079 15.264 752.343 15.528 751.783 16.056C751.223 16.568 750.943 17.416 750.943 18.6V24H747.751V12.192H750.847V13.944C751.423 12.712 752.543 12.096 754.207 12.096C754.383 12.096 754.631 12.112 754.951 12.144ZM760.388 24H757.196V6.624H760.388V24ZM775.062 6.624V21.864C775.062 22.648 775.094 23.36 775.158 24H772.11C772.03 23.6 771.99 23.144 771.99 22.632C771.718 23.128 771.286 23.528 770.694 23.832C770.118 24.136 769.446 24.288 768.678 24.288C766.998 24.288 765.614 23.704 764.526 22.536C763.454 21.352 762.918 19.864 762.918 18.072C762.918 16.328 763.446 14.864 764.502 13.68C765.574 12.496 766.934 11.904 768.582 11.904C770.278 11.904 771.39 12.392 771.918 13.368V6.624H775.062ZM766.134 18.072C766.134 19.112 766.406 19.936 766.95 20.544C767.494 21.136 768.198 21.432 769.062 21.432C769.91 21.432 770.606 21.128 771.15 20.52C771.694 19.912 771.966 19.088 771.966 18.048C771.966 17.024 771.694 16.224 771.15 15.648C770.606 15.056 769.91 14.76 769.062 14.76C768.214 14.76 767.51 15.056 766.95 15.648C766.406 16.24 766.134 17.048 766.134 18.072Z" fill="#4C5A7E"/>
<path d="M809.113 244.66L806.509 245.458C806.411 244.926 806.145 244.443 805.711 244.009C805.277 243.575 804.64 243.358 803.8 243.358C803.114 243.358 802.554 243.547 802.12 243.925C801.686 244.289 801.469 244.73 801.469 245.248C801.469 246.158 802.008 246.718 803.086 246.928L805.165 247.327C806.481 247.579 807.503 248.104 808.231 248.902C808.959 249.7 809.323 250.638 809.323 251.716C809.323 252.948 808.833 254.026 807.853 254.95C806.887 255.86 805.585 256.315 803.947 256.315C803.009 256.315 802.162 256.175 801.406 255.895C800.65 255.615 800.041 255.244 799.579 254.782C799.117 254.306 798.753 253.809 798.487 253.291C798.235 252.759 798.081 252.213 798.025 251.653L800.713 250.939C800.783 251.737 801.091 252.402 801.637 252.934C802.197 253.466 802.974 253.732 803.968 253.732C804.724 253.732 805.312 253.564 805.732 253.228C806.166 252.892 806.383 252.451 806.383 251.905C806.383 251.471 806.222 251.1 805.9 250.792C805.592 250.47 805.151 250.253 804.577 250.141L802.498 249.721C801.294 249.469 800.342 248.972 799.642 248.23C798.942 247.488 798.592 246.564 798.592 245.458C798.592 244.142 799.096 243.036 800.104 242.14C801.126 241.244 802.351 240.796 803.779 240.796C804.633 240.796 805.396 240.915 806.068 241.153C806.74 241.391 807.279 241.713 807.685 242.119C808.091 242.511 808.406 242.917 808.63 243.337C808.854 243.757 809.015 244.198 809.113 244.66ZM828.38 256H825.524V245.563L821.24 256H818.825L814.541 245.647V256H811.769V241.111H815.591L820.064 251.863L824.432 241.111H828.38V256ZM841.109 256H831.785V241.111H841.109V243.841H834.683V247.243H840.5V249.826H834.683V253.27H841.109V256ZM851.779 256H848.986V240.796H851.779V256ZM856.806 249.658H861.426C861.398 249.084 861.188 248.601 860.796 248.209C860.418 247.817 859.858 247.621 859.116 247.621C858.444 247.621 857.898 247.831 857.478 248.251C857.058 248.671 856.834 249.14 856.806 249.658ZM861.699 252.346L864.03 253.039C863.75 253.991 863.197 254.775 862.371 255.391C861.559 256.007 860.544 256.315 859.326 256.315C857.842 256.315 856.582 255.818 855.546 254.824C854.51 253.816 853.992 252.472 853.992 250.792C853.992 249.196 854.496 247.894 855.504 246.886C856.512 245.864 857.702 245.353 859.074 245.353C860.67 245.353 861.916 245.829 862.812 246.781C863.722 247.733 864.177 249.042 864.177 250.708C864.177 250.82 864.17 250.946 864.156 251.086C864.156 251.226 864.156 251.338 864.156 251.422L864.135 251.569H856.743C856.771 252.241 857.037 252.801 857.541 253.249C858.045 253.697 858.647 253.921 859.347 253.921C860.537 253.921 861.321 253.396 861.699 252.346ZM869.17 250.057V256H866.377V245.668H869.086V246.949C869.38 246.445 869.8 246.06 870.346 245.794C870.892 245.528 871.466 245.395 872.068 245.395C873.286 245.395 874.21 245.78 874.84 246.55C875.484 247.306 875.806 248.286 875.806 249.49V256H873.013V249.973C873.013 249.357 872.852 248.86 872.53 248.482C872.222 248.104 871.746 247.915 871.102 247.915C870.514 247.915 870.045 248.118 869.695 248.524C869.345 248.93 869.17 249.441 869.17 250.057ZM888.489 240.796V254.131C888.489 254.817 888.517 255.44 888.573 256H885.906C885.836 255.65 885.801 255.251 885.801 254.803C885.563 255.237 885.185 255.587 884.667 255.853C884.163 256.119 883.575 256.252 882.903 256.252C881.433 256.252 880.222 255.741 879.27 254.719C878.332 253.683 877.863 252.381 877.863 250.813C877.863 249.287 878.325 248.006 879.249 246.97C880.187 245.934 881.377 245.416 882.819 245.416C884.303 245.416 885.276 245.843 885.738 246.697V240.796H888.489ZM880.677 250.813C880.677 251.723 880.915 252.444 881.391 252.976C881.867 253.494 882.483 253.753 883.239 253.753C883.981 253.753 884.59 253.487 885.066 252.955C885.542 252.423 885.78 251.702 885.78 250.792C885.78 249.896 885.542 249.196 885.066 248.692C884.59 248.174 883.981 247.915 883.239 247.915C882.497 247.915 881.881 248.174 881.391 248.692C880.915 249.21 880.677 249.917 880.677 250.813ZM894.312 256H891.519V245.668H894.312V256ZM891.183 242.287C891.183 241.811 891.351 241.405 891.687 241.069C892.023 240.719 892.429 240.544 892.905 240.544C893.381 240.544 893.787 240.712 894.123 241.048C894.459 241.384 894.627 241.797 894.627 242.287C894.627 242.749 894.459 243.148 894.123 243.484C893.787 243.82 893.381 243.988 892.905 243.988C892.429 243.988 892.023 243.82 891.687 243.484C891.351 243.148 891.183 242.749 891.183 242.287ZM900.096 250.057V256H897.303V245.668H900.012V246.949C900.306 246.445 900.726 246.06 901.272 245.794C901.818 245.528 902.392 245.395 902.994 245.395C904.212 245.395 905.136 245.78 905.766 246.55C906.41 247.306 906.732 248.286 906.732 249.49V256H903.939V249.973C903.939 249.357 903.778 248.86 903.456 248.482C903.148 248.104 902.672 247.915 902.028 247.915C901.44 247.915 900.971 248.118 900.621 248.524C900.271 248.93 900.096 249.441 900.096 250.057ZM908.831 256.567L911.351 255.895C911.449 256.469 911.715 256.938 912.149 257.302C912.583 257.666 913.122 257.848 913.766 257.848C915.6 257.848 916.517 256.889 916.517 254.971V254.215C916.279 254.593 915.915 254.908 915.425 255.16C914.935 255.412 914.34 255.538 913.64 255.538C912.268 255.538 911.12 255.062 910.196 254.11C909.286 253.158 908.831 251.961 908.831 250.519C908.831 249.119 909.286 247.929 910.196 246.949C911.106 245.969 912.254 245.479 913.64 245.479C914.396 245.479 915.026 245.619 915.53 245.899C916.034 246.165 916.384 246.494 916.58 246.886V245.668H919.268V254.887C919.268 256.441 918.82 257.729 917.924 258.751C917.028 259.787 915.67 260.305 913.85 260.305C912.492 260.305 911.351 259.941 910.427 259.213C909.517 258.485 908.985 257.603 908.831 256.567ZM914.123 253.144C914.837 253.144 915.418 252.906 915.866 252.43C916.328 251.954 916.559 251.317 916.559 250.519C916.559 249.735 916.321 249.105 915.845 248.629C915.383 248.153 914.809 247.915 914.123 247.915C913.409 247.915 912.814 248.153 912.338 248.629C911.876 249.105 911.645 249.735 911.645 250.519C911.645 251.317 911.876 251.954 912.338 252.43C912.8 252.906 913.395 253.144 914.123 253.144ZM816.413 291.99H813.62V277.668H816.329V278.928C816.581 278.508 816.987 278.158 817.547 277.878C818.107 277.584 818.758 277.437 819.5 277.437C820.97 277.437 822.132 277.941 822.986 278.949C823.84 279.943 824.267 281.231 824.267 282.813C824.267 284.395 823.812 285.697 822.902 286.719C822.006 287.741 820.837 288.252 819.395 288.252C818.023 288.252 817.029 287.832 816.413 286.992V291.99ZM820.781 284.976C821.271 284.444 821.516 283.73 821.516 282.834C821.516 281.938 821.271 281.231 820.781 280.713C820.305 280.195 819.696 279.936 818.954 279.936C818.212 279.936 817.596 280.202 817.106 280.734C816.616 281.252 816.371 281.952 816.371 282.834C816.371 283.716 816.616 284.423 817.106 284.955C817.596 285.487 818.212 285.753 818.954 285.753C819.696 285.753 820.305 285.494 820.781 284.976ZM829.272 288H826.479V272.796H829.272V288ZM831.57 285.186C831.57 284.304 831.857 283.597 832.431 283.065C833.005 282.533 833.747 282.197 834.657 282.057L837.198 281.679C837.716 281.609 837.975 281.364 837.975 280.944C837.975 280.552 837.821 280.23 837.513 279.978C837.219 279.726 836.792 279.6 836.232 279.6C835.644 279.6 835.175 279.761 834.825 280.083C834.489 280.405 834.3 280.804 834.258 281.28L831.78 280.755C831.878 279.859 832.319 279.068 833.103 278.382C833.887 277.696 834.923 277.353 836.211 277.353C837.751 277.353 838.885 277.724 839.613 278.466C840.341 279.194 840.705 280.132 840.705 281.28V286.362C840.705 286.978 840.747 287.524 840.831 288H838.269C838.199 287.692 838.164 287.279 838.164 286.761C837.506 287.783 836.491 288.294 835.119 288.294C834.055 288.294 833.194 287.986 832.536 287.37C831.892 286.754 831.57 286.026 831.57 285.186ZM835.707 286.215C836.365 286.215 836.904 286.033 837.324 285.669C837.758 285.291 837.975 284.675 837.975 283.821V283.359L835.644 283.716C834.79 283.842 834.363 284.276 834.363 285.018C834.363 285.354 834.482 285.641 834.72 285.879C834.958 286.103 835.287 286.215 835.707 286.215ZM846.903 274.581V277.668H848.982V280.146H846.903V284.472C846.903 284.906 847.001 285.214 847.197 285.396C847.393 285.578 847.701 285.669 848.121 285.669C848.499 285.669 848.786 285.641 848.982 285.585V287.895C848.576 288.063 848.051 288.147 847.407 288.147C846.399 288.147 845.601 287.867 845.013 287.307C844.425 286.733 844.131 285.949 844.131 284.955V280.146H842.262V277.668H842.787C843.305 277.668 843.697 277.521 843.963 277.227C844.243 276.919 844.383 276.52 844.383 276.03V274.581H846.903ZM856.081 275.106C855.689 275.106 855.346 275.218 855.052 275.442C854.772 275.652 854.632 276.016 854.632 276.534V277.668H856.963V280.062H854.632V288H851.818V280.062H850.096V277.668H851.818V276.492C851.818 275.33 852.154 274.399 852.826 273.699C853.512 272.999 854.429 272.649 855.577 272.649C856.193 272.649 856.655 272.719 856.963 272.859V275.211C856.725 275.141 856.431 275.106 856.081 275.106ZM861.325 284.997C861.843 285.515 862.466 285.774 863.194 285.774C863.922 285.774 864.538 285.515 865.042 284.997C865.56 284.479 865.819 283.758 865.819 282.834C865.819 281.91 865.56 281.189 865.042 280.671C864.538 280.153 863.922 279.894 863.194 279.894C862.466 279.894 861.843 280.153 861.325 280.671C860.821 281.189 860.569 281.91 860.569 282.834C860.569 283.758 860.821 284.479 861.325 284.997ZM859.309 278.907C860.345 277.871 861.64 277.353 863.194 277.353C864.748 277.353 866.036 277.871 867.058 278.907C868.094 279.943 868.612 281.252 868.612 282.834C868.612 284.416 868.094 285.725 867.058 286.761C866.036 287.797 864.748 288.315 863.194 288.315C861.64 288.315 860.345 287.797 859.309 286.761C858.287 285.725 857.776 284.416 857.776 282.834C857.776 281.252 858.287 279.943 859.309 278.907ZM877.117 277.626V280.44C876.837 280.384 876.557 280.356 876.277 280.356C875.479 280.356 874.835 280.587 874.345 281.049C873.855 281.497 873.61 282.239 873.61 283.275V288H870.817V277.668H873.526V279.201C874.03 278.123 875.01 277.584 876.466 277.584C876.62 277.584 876.837 277.598 877.117 277.626ZM881.874 288H879.081V277.668H881.748V278.928C882.014 278.452 882.434 278.074 883.008 277.794C883.582 277.514 884.17 277.374 884.772 277.374C886.27 277.374 887.292 277.948 887.838 279.096C888.58 277.948 889.672 277.374 891.114 277.374C892.164 277.374 893.046 277.703 893.76 278.361C894.488 279.019 894.852 279.999 894.852 281.301V288H892.143V281.868C892.143 281.28 891.989 280.811 891.681 280.461C891.387 280.097 890.932 279.915 890.316 279.915C889.742 279.915 889.28 280.111 888.93 280.503C888.58 280.895 888.405 281.378 888.405 281.952V288H885.633V281.868C885.633 281.28 885.479 280.811 885.171 280.461C884.863 280.097 884.408 279.915 883.806 279.915C883.218 279.915 882.749 280.111 882.399 280.503C882.049 280.881 881.874 281.364 881.874 281.952V288ZM896.8 285.123L899.194 284.598C899.222 285.046 899.397 285.424 899.719 285.732C900.055 286.026 900.51 286.173 901.084 286.173C901.518 286.173 901.854 286.075 902.092 285.879C902.33 285.683 902.449 285.438 902.449 285.144C902.449 284.626 902.078 284.29 901.336 284.136L899.971 283.821C899.005 283.611 898.277 283.233 897.787 282.687C897.311 282.141 897.073 281.49 897.073 280.734C897.073 279.796 897.437 278.998 898.165 278.34C898.907 277.682 899.831 277.353 900.937 277.353C901.637 277.353 902.253 277.458 902.785 277.668C903.317 277.864 903.73 278.123 904.024 278.445C904.318 278.753 904.542 279.068 904.696 279.39C904.85 279.712 904.948 280.027 904.99 280.335L902.659 280.86C902.603 280.496 902.435 280.174 902.155 279.894C901.889 279.614 901.49 279.474 900.958 279.474C900.594 279.474 900.279 279.572 900.013 279.768C899.761 279.964 899.635 280.209 899.635 280.503C899.635 281.007 899.95 281.315 900.58 281.427L902.05 281.742C903.044 281.952 903.8 282.337 904.318 282.897C904.85 283.457 905.116 284.129 905.116 284.913C905.116 285.837 904.766 286.635 904.066 287.307C903.366 287.979 902.379 288.315 901.105 288.315C900.377 288.315 899.726 288.21 899.152 288C898.578 287.776 898.13 287.496 897.808 287.16C897.5 286.81 897.262 286.467 897.094 286.131C896.94 285.781 896.842 285.445 896.8 285.123Z" fill="url(#paint0_linear_313_1495)"/>
<path d="M112.391 272.336C110.739 272.336 109.374 271.846 108.296 270.866C107.218 269.872 106.679 268.493 106.679 266.729V257.111H109.577V266.519C109.577 267.485 109.822 268.227 110.312 268.745C110.816 269.249 111.509 269.501 112.391 269.501C113.287 269.501 113.98 269.249 114.47 268.745C114.974 268.227 115.226 267.485 115.226 266.519V257.111H118.124V266.729C118.124 268.493 117.585 269.872 116.507 270.866C115.429 271.846 114.057 272.336 112.391 272.336ZM120.233 269.123L122.627 268.598C122.655 269.046 122.83 269.424 123.152 269.732C123.488 270.026 123.943 270.173 124.517 270.173C124.951 270.173 125.287 270.075 125.525 269.879C125.763 269.683 125.882 269.438 125.882 269.144C125.882 268.626 125.511 268.29 124.769 268.136L123.404 267.821C122.438 267.611 121.71 267.233 121.22 266.687C120.744 266.141 120.506 265.49 120.506 264.734C120.506 263.796 120.87 262.998 121.598 262.34C122.34 261.682 123.264 261.353 124.37 261.353C125.07 261.353 125.686 261.458 126.218 261.668C126.75 261.864 127.163 262.123 127.457 262.445C127.751 262.753 127.975 263.068 128.129 263.39C128.283 263.712 128.381 264.027 128.423 264.335L126.092 264.86C126.036 264.496 125.868 264.174 125.588 263.894C125.322 263.614 124.923 263.474 124.391 263.474C124.027 263.474 123.712 263.572 123.446 263.768C123.194 263.964 123.068 264.209 123.068 264.503C123.068 265.007 123.383 265.315 124.013 265.427L125.483 265.742C126.477 265.952 127.233 266.337 127.751 266.897C128.283 267.457 128.549 268.129 128.549 268.913C128.549 269.837 128.199 270.635 127.499 271.307C126.799 271.979 125.812 272.315 124.538 272.315C123.81 272.315 123.159 272.21 122.585 272C122.011 271.776 121.563 271.496 121.241 271.16C120.933 270.81 120.695 270.467 120.527 270.131C120.373 269.781 120.275 269.445 120.233 269.123ZM132.79 265.658H137.41C137.382 265.084 137.172 264.601 136.78 264.209C136.402 263.817 135.842 263.621 135.1 263.621C134.428 263.621 133.882 263.831 133.462 264.251C133.042 264.671 132.818 265.14 132.79 265.658ZM137.683 268.346L140.014 269.039C139.734 269.991 139.181 270.775 138.355 271.391C137.543 272.007 136.528 272.315 135.31 272.315C133.826 272.315 132.566 271.818 131.53 270.824C130.494 269.816 129.976 268.472 129.976 266.792C129.976 265.196 130.48 263.894 131.488 262.886C132.496 261.864 133.686 261.353 135.058 261.353C136.654 261.353 137.9 261.829 138.796 262.781C139.706 263.733 140.161 265.042 140.161 266.708C140.161 266.82 140.154 266.946 140.14 267.086C140.14 267.226 140.14 267.338 140.14 267.422L140.119 267.569H132.727C132.755 268.241 133.021 268.801 133.525 269.249C134.029 269.697 134.631 269.921 135.331 269.921C136.521 269.921 137.305 269.396 137.683 268.346ZM148.661 261.626V264.44C148.381 264.384 148.101 264.356 147.821 264.356C147.023 264.356 146.379 264.587 145.889 265.049C145.399 265.497 145.154 266.239 145.154 267.275V272H142.361V261.668H145.07V263.201C145.574 262.123 146.554 261.584 148.01 261.584C148.164 261.584 148.381 261.598 148.661 261.626ZM149.805 269.123L152.199 268.598C152.227 269.046 152.402 269.424 152.724 269.732C153.06 270.026 153.515 270.173 154.089 270.173C154.523 270.173 154.859 270.075 155.097 269.879C155.335 269.683 155.454 269.438 155.454 269.144C155.454 268.626 155.083 268.29 154.341 268.136L152.976 267.821C152.01 267.611 151.282 267.233 150.792 266.687C150.316 266.141 150.078 265.49 150.078 264.734C150.078 263.796 150.442 262.998 151.17 262.34C151.912 261.682 152.836 261.353 153.942 261.353C154.642 261.353 155.258 261.458 155.79 261.668C156.322 261.864 156.735 262.123 157.029 262.445C157.323 262.753 157.547 263.068 157.701 263.39C157.855 263.712 157.953 264.027 157.995 264.335L155.664 264.86C155.608 264.496 155.44 264.174 155.16 263.894C154.894 263.614 154.495 263.474 153.963 263.474C153.599 263.474 153.284 263.572 153.018 263.768C152.766 263.964 152.64 264.209 152.64 264.503C152.64 265.007 152.955 265.315 153.585 265.427L155.055 265.742C156.049 265.952 156.805 266.337 157.323 266.897C157.855 267.457 158.121 268.129 158.121 268.913C158.121 269.837 157.771 270.635 157.071 271.307C156.371 271.979 155.384 272.315 154.11 272.315C153.382 272.315 152.731 272.21 152.157 272C151.583 271.776 151.135 271.496 150.813 271.16C150.505 270.81 150.267 270.467 150.099 270.131C149.945 269.781 149.847 269.445 149.805 269.123Z" fill="url(#paint1_linear_313_1495)"/>
<g filter="url(#filter2_dd_313_1495)">
<path d="M572.393 247.528C575.637 244.276 581.125 245.676 581.95 250.194C582.886 255.319 583.375 260.601 583.375 265.996C583.375 314.263 544.247 353.391 495.98 353.391C464.4 353.391 436.733 336.642 421.376 311.541C419.038 307.72 419.871 302.846 423.031 299.671L441.159 281.455C444.758 277.856 449.214 277.856 452.811 281.453L490.503 319.251C493.355 322.11 497.987 322.112 500.841 319.256C503.69 316.405 503.692 311.785 500.844 308.933L482.063 290.116L517.773 254.325L536.012 272.562C539.165 275.715 544.278 275.712 547.428 272.555L572.393 247.528Z" fill="#C90E7E"/>
<path d="M567.554 230.269C570.827 227.018 571.63 221.966 569.099 218.109C553.484 194.315 526.567 178.602 495.98 178.602C447.713 178.602 408.585 217.73 408.585 265.997C408.585 270.184 408.879 274.302 409.449 278.332C410.103 282.965 415.681 284.515 419 281.216L440.578 259.765C443.728 256.634 448.817 256.638 451.962 259.774L470.096 277.857L505.81 242.376L487.082 223.75C484.222 220.905 484.221 216.276 487.082 213.431C489.919 210.609 494.504 210.608 497.343 213.429L535.105 250.938C538.493 254.326 543.351 254.326 546.74 250.938L567.554 230.269Z" fill="#3B185F"/>
<path fill-rule="evenodd" clip-rule="evenodd" d="M596 266C596 321.228 551.228 366 496 366C440.772 366 396 321.228 396 266C396 210.772 440.772 166 496 166C551.228 166 596 210.772 596 266ZM567.554 230.269C570.827 227.018 571.63 221.966 569.099 218.109C553.484 194.315 526.567 178.602 495.98 178.602C447.713 178.602 408.585 217.73 408.585 265.997C408.585 270.184 408.879 274.302 409.449 278.332C410.103 282.965 415.681 284.515 419 281.216L440.578 259.765C443.728 256.634 448.817 256.637 451.962 259.774L470.096 277.857L505.81 242.376L487.082 223.75C484.221 220.905 484.221 216.276 487.081 213.431C489.919 210.608 494.504 210.608 497.343 213.429L535.105 250.937C538.493 254.326 543.351 254.326 546.74 250.937L567.554 230.269ZM572.393 247.528C575.637 244.276 581.125 245.676 581.95 250.195C582.886 255.32 583.375 260.601 583.375 265.997C583.375 314.264 544.247 353.392 495.98 353.392C464.4 353.392 436.732 336.642 421.376 311.542C419.038 307.72 419.871 302.847 423.031 299.671L441.158 281.456C444.757 277.857 449.214 277.857 452.811 281.454L490.503 319.251C493.355 322.111 497.986 322.113 500.841 319.256C503.69 316.405 503.691 311.786 500.844 308.933L482.063 290.117L517.773 254.326L536.012 272.563C539.165 275.716 544.278 275.712 547.427 272.555L572.393 247.528Z" fill="white"/>
</g>
<rect x="226" y="77" width="138" height="33" rx="16.5" fill="#E3E8EE"/>
<path d="M244.352 98.24C242.805 98.24 241.477 97.7067 240.368 96.64C239.269 95.5733 238.72 94.1333 238.72 92.32C238.72 91.104 238.997 90.0373 239.552 89.12C240.107 88.2027 240.805 87.5253 241.648 87.088C242.491 86.64 243.392 86.416 244.352 86.416C245.632 86.416 246.709 86.7413 247.584 87.392C248.469 88.032 249.056 88.9067 249.344 90.016L247.888 90.528C247.675 89.6747 247.264 89.0187 246.656 88.56C246.048 88.0907 245.28 87.856 244.352 87.856C243.243 87.856 242.293 88.2507 241.504 89.04C240.715 89.8187 240.32 90.912 240.32 92.32C240.32 93.728 240.715 94.8267 241.504 95.616C242.293 96.4053 243.243 96.8 244.352 96.8C245.28 96.8 246.053 96.5547 246.672 96.064C247.291 95.5627 247.723 94.9013 247.968 94.08L249.36 94.592C249.051 95.6907 248.453 96.576 247.568 97.248C246.693 97.9093 245.621 98.24 244.352 98.24ZM255.318 90.224V91.824C255.094 91.792 254.875 91.776 254.662 91.776C253.254 91.776 252.55 92.5653 252.55 94.144V98H251.046V90.304H252.518V91.648C252.987 90.6667 253.755 90.176 254.822 90.176C254.992 90.176 255.158 90.192 255.318 90.224ZM259.075 101.216H257.427L259.347 97.152L256.035 90.304H257.763L260.163 95.616L262.467 90.304H264.083L259.075 101.216ZM267.018 101.04H265.53V90.304H266.986V91.504C267.21 91.0987 267.546 90.768 267.994 90.512C268.442 90.256 268.965 90.128 269.562 90.128C270.671 90.128 271.535 90.5067 272.154 91.264C272.783 92.0213 273.098 92.9813 273.098 94.144C273.098 95.3173 272.773 96.288 272.122 97.056C271.482 97.824 270.613 98.208 269.514 98.208C268.949 98.208 268.447 98.0907 268.01 97.856C267.573 97.6213 267.242 97.3227 267.018 96.96V101.04ZM271.562 94.144C271.562 93.3653 271.354 92.7253 270.938 92.224C270.533 91.712 269.983 91.456 269.29 91.456C268.607 91.456 268.053 91.712 267.626 92.224C267.21 92.7253 267.002 93.3653 267.002 94.144C267.002 94.944 267.21 95.6 267.626 96.112C268.053 96.6133 268.607 96.864 269.29 96.864C269.973 96.864 270.522 96.6133 270.938 96.112C271.354 95.6 271.562 94.944 271.562 94.144ZM276.952 87.872V90.304H278.616V91.664H276.952V95.664C276.952 96.0267 277.032 96.2933 277.192 96.464C277.363 96.6347 277.64 96.72 278.024 96.72C278.248 96.72 278.446 96.6987 278.616 96.656V97.936C278.36 98.032 278.019 98.08 277.592 98.08C276.931 98.08 276.408 97.888 276.024 97.504C275.64 97.12 275.448 96.5813 275.448 95.888V91.664H273.976V90.304H274.392C274.787 90.304 275.08 90.1973 275.272 89.984C275.475 89.76 275.576 89.472 275.576 89.12V87.872H276.952ZM282.13 96.176C282.599 96.656 283.17 96.896 283.842 96.896C284.514 96.896 285.079 96.656 285.538 96.176C286.007 95.6853 286.242 95.008 286.242 94.144C286.242 93.2907 286.007 92.624 285.538 92.144C285.079 91.6533 284.514 91.408 283.842 91.408C283.17 91.408 282.599 91.6533 282.13 92.144C281.671 92.624 281.442 93.2907 281.442 94.144C281.442 95.008 281.671 95.6853 282.13 96.176ZM281.01 91.232C281.756 90.4533 282.7 90.064 283.842 90.064C284.983 90.064 285.922 90.4533 286.658 91.232C287.404 92 287.778 92.9707 287.778 94.144C287.778 95.328 287.41 96.3093 286.674 97.088C285.938 97.856 284.994 98.24 283.842 98.24C282.69 98.24 281.746 97.856 281.01 97.088C280.274 96.3093 279.906 95.328 279.906 94.144C279.906 92.9707 280.274 92 281.01 91.232ZM292.934 91.456C292.283 91.456 291.729 91.6907 291.27 92.16C290.822 92.6293 290.598 93.2907 290.598 94.144C290.598 94.9867 290.822 95.648 291.27 96.128C291.729 96.608 292.289 96.848 292.95 96.848C293.59 96.848 294.075 96.688 294.406 96.368C294.747 96.048 294.977 95.68 295.094 95.264L296.422 95.84C296.209 96.48 295.803 97.04 295.206 97.52C294.619 98 293.867 98.24 292.95 98.24C291.83 98.24 290.902 97.8507 290.166 97.072C289.43 96.2933 289.062 95.3173 289.062 94.144C289.062 92.9493 289.43 91.9733 290.166 91.216C290.902 90.448 291.825 90.064 292.934 90.064C293.873 90.064 294.63 90.304 295.206 90.784C295.793 91.264 296.177 91.84 296.358 92.512L294.998 93.088C294.881 92.64 294.657 92.256 294.326 91.936C293.995 91.616 293.531 91.456 292.934 91.456ZM303.18 97.072C302.977 97.456 302.668 97.7493 302.252 97.952C301.836 98.144 301.388 98.24 300.908 98.24C300.033 98.24 299.335 97.952 298.812 97.376C298.289 96.7893 298.028 96.048 298.028 95.152V90.304H299.532V94.928C299.532 95.504 299.671 95.9787 299.948 96.352C300.236 96.7253 300.679 96.912 301.276 96.912C301.873 96.912 302.327 96.736 302.636 96.384C302.945 96.0213 303.1 95.5413 303.1 94.944V90.304H304.604V96.576C304.604 97.0773 304.631 97.552 304.684 98H303.244C303.201 97.7653 303.18 97.456 303.18 97.072ZM311.443 90.224V91.824C311.219 91.792 311 91.776 310.787 91.776C309.379 91.776 308.675 92.5653 308.675 94.144V98H307.171V90.304H308.643V91.648C309.112 90.6667 309.88 90.176 310.947 90.176C311.117 90.176 311.283 90.192 311.443 90.224ZM317.318 90.224V91.824C317.094 91.792 316.875 91.776 316.662 91.776C315.254 91.776 314.55 92.5653 314.55 94.144V98H313.046V90.304H314.518V91.648C314.987 90.6667 315.755 90.176 316.822 90.176C316.992 90.176 317.158 90.192 317.318 90.224ZM319.819 93.36H324.027C324.005 92.784 323.813 92.3147 323.451 91.952C323.088 91.5787 322.576 91.392 321.915 91.392C321.317 91.392 320.827 91.5893 320.443 91.984C320.059 92.368 319.851 92.8267 319.819 93.36ZM324.251 95.36L325.547 95.808C325.323 96.5227 324.907 97.1093 324.299 97.568C323.691 98.016 322.955 98.24 322.091 98.24C321.013 98.24 320.096 97.872 319.339 97.136C318.592 96.3893 318.219 95.3867 318.219 94.128C318.219 92.9547 318.581 91.984 319.307 91.216C320.032 90.448 320.896 90.064 321.899 90.064C323.061 90.064 323.968 90.432 324.619 91.168C325.269 91.8933 325.595 92.8693 325.595 94.096C325.595 94.288 325.584 94.448 325.562 94.576H319.771C319.781 95.2587 320.005 95.8187 320.443 96.256C320.891 96.6933 321.44 96.912 322.091 96.912C323.189 96.912 323.909 96.3947 324.251 95.36ZM329.018 93.552V98H327.514V90.304H328.986V91.408C329.498 90.5227 330.288 90.08 331.354 90.08C332.24 90.08 332.917 90.3627 333.386 90.928C333.866 91.4933 334.106 92.224 334.106 93.12V98H332.602V93.376C332.602 92.0853 332.005 91.44 330.81 91.44C330.245 91.44 329.802 91.6427 329.482 92.048C329.173 92.4427 329.018 92.944 329.018 93.552ZM339.731 91.456C339.08 91.456 338.525 91.6907 338.067 92.16C337.619 92.6293 337.395 93.2907 337.395 94.144C337.395 94.9867 337.619 95.648 338.067 96.128C338.525 96.608 339.085 96.848 339.747 96.848C340.387 96.848 340.872 96.688 341.203 96.368C341.544 96.048 341.773 95.68 341.891 95.264L343.219 95.84C343.005 96.48 342.6 97.04 342.003 97.52C341.416 98 340.664 98.24 339.747 98.24C338.627 98.24 337.699 97.8507 336.963 97.072C336.227 96.2933 335.859 95.3173 335.859 94.144C335.859 92.9493 336.227 91.9733 336.963 91.216C337.699 90.448 338.621 90.064 339.731 90.064C340.669 90.064 341.427 90.304 342.003 90.784C342.589 91.264 342.973 91.84 343.155 92.512L341.795 93.088C341.677 92.64 341.453 92.256 341.123 91.936C340.792 91.616 340.328 91.456 339.731 91.456ZM346.825 101.216H345.177L347.097 97.152L343.785 90.304H345.513L347.913 95.616L350.217 90.304H351.833L346.825 101.216Z" fill="#4C5A7E"/>
<rect x="663" y="77" width="67" height="33" rx="16.5" fill="#E3E8EE"/>
<path d="M683.649 98H676.721V86.656H678.289V96.528H683.649V98ZM686.833 96.176C687.302 96.656 687.873 96.896 688.545 96.896C689.217 96.896 689.782 96.656 690.241 96.176C690.71 95.6853 690.945 95.008 690.945 94.144C690.945 93.2907 690.71 92.624 690.241 92.144C689.782 91.6533 689.217 91.408 688.545 91.408C687.873 91.408 687.302 91.6533 686.833 92.144C686.374 92.624 686.145 93.2907 686.145 94.144C686.145 95.008 686.374 95.6853 686.833 96.176ZM685.713 91.232C686.459 90.4533 687.403 90.064 688.545 90.064C689.686 90.064 690.625 90.4533 691.361 91.232C692.107 92 692.481 92.9707 692.481 94.144C692.481 95.328 692.113 96.3093 691.377 97.088C690.641 97.856 689.697 98.24 688.545 98.24C687.393 98.24 686.449 97.856 685.713 97.088C684.977 96.3093 684.609 95.328 684.609 94.144C684.609 92.9707 684.977 92 685.713 91.232ZM693.925 95.936C693.925 95.2747 694.138 94.7467 694.565 94.352C694.992 93.9467 695.557 93.696 696.261 93.6L698.341 93.296C698.736 93.2427 698.933 93.0507 698.933 92.72C698.933 92.3147 698.794 91.984 698.517 91.728C698.24 91.472 697.824 91.344 697.269 91.344C696.757 91.344 696.352 91.488 696.053 91.776C695.754 92.0533 695.578 92.4267 695.525 92.896L694.085 92.56C694.16 91.824 694.496 91.2267 695.093 90.768C695.69 90.2987 696.405 90.064 697.237 90.064C698.325 90.064 699.13 90.3307 699.653 90.864C700.176 91.3867 700.437 92.0587 700.437 92.88V96.736C700.437 97.1947 700.469 97.616 700.533 98H699.061C699.008 97.68 698.981 97.3333 698.981 96.96C698.768 97.3013 698.453 97.6 698.037 97.856C697.632 98.112 697.12 98.24 696.501 98.24C695.744 98.24 695.125 98.016 694.645 97.568C694.165 97.1093 693.925 96.5653 693.925 95.936ZM696.709 96.976C697.381 96.976 697.92 96.7947 698.325 96.432C698.73 96.0693 698.933 95.4933 698.933 94.704V94.352L696.581 94.704C696.24 94.7573 695.968 94.88 695.765 95.072C695.562 95.264 695.461 95.5253 695.461 95.856C695.461 96.1547 695.573 96.416 695.797 96.64C696.032 96.864 696.336 96.976 696.709 96.976ZM704.284 93.552V98H702.78V90.304H704.252V91.408C704.764 90.5227 705.553 90.08 706.62 90.08C707.505 90.08 708.183 90.3627 708.652 90.928C709.132 91.4933 709.372 92.224 709.372 93.12V98H707.868V93.376C707.868 92.0853 707.271 91.44 706.076 91.44C705.511 91.44 705.068 91.6427 704.748 92.048C704.439 92.4427 704.284 92.944 704.284 93.552ZM711.044 96L712.404 95.52C712.458 95.936 712.639 96.2827 712.948 96.56C713.258 96.8267 713.674 96.96 714.196 96.96C714.602 96.96 714.922 96.864 715.156 96.672C715.391 96.4693 715.508 96.224 715.508 95.936C715.508 95.424 715.178 95.0933 714.516 94.944L713.204 94.656C712.607 94.528 712.138 94.272 711.796 93.888C711.455 93.504 711.284 93.04 711.284 92.496C711.284 91.8347 711.551 91.264 712.084 90.784C712.628 90.304 713.274 90.064 714.02 90.064C714.511 90.064 714.948 90.1387 715.332 90.288C715.716 90.4267 716.015 90.6133 716.228 90.848C716.442 91.0827 716.602 91.3013 716.708 91.504C716.815 91.7067 716.895 91.9147 716.948 92.128L715.62 92.624C715.599 92.496 715.562 92.3733 715.508 92.256C715.455 92.128 715.37 91.9893 715.252 91.84C715.146 91.6907 714.986 91.5733 714.772 91.488C714.559 91.392 714.308 91.344 714.02 91.344C713.647 91.344 713.338 91.4453 713.092 91.648C712.858 91.8507 712.74 92.0907 712.74 92.368C712.74 92.8587 713.034 93.168 713.62 93.296L714.868 93.568C715.551 93.7173 716.074 93.9947 716.436 94.4C716.81 94.7947 716.996 95.28 716.996 95.856C716.996 96.464 716.746 97.0133 716.244 97.504C715.754 97.9947 715.066 98.24 714.18 98.24C713.231 98.24 712.49 98.0053 711.956 97.536C711.423 97.056 711.119 96.544 711.044 96Z" fill="#4C5A7E"/>
<rect x="656" y="428" width="80" height="33" rx="16.5" fill="#E3E8EE"/>
<path d="M671.47 449H669.87V437.656H671.47V449ZM675.698 444.552V449H674.194V441.304H675.666V442.408C676.178 441.523 676.967 441.08 678.034 441.08C678.919 441.08 679.597 441.363 680.066 441.928C680.546 442.493 680.786 443.224 680.786 444.12V449H679.282V444.376C679.282 443.085 678.685 442.44 677.49 442.44C676.925 442.44 676.482 442.643 676.162 443.048C675.853 443.443 675.698 443.944 675.698 444.552ZM685.194 438.872V441.304H686.858V442.664H685.194V446.664C685.194 447.027 685.274 447.293 685.434 447.464C685.605 447.635 685.882 447.72 686.266 447.72C686.49 447.72 686.688 447.699 686.858 447.656V448.936C686.602 449.032 686.261 449.08 685.834 449.08C685.173 449.08 684.65 448.888 684.266 448.504C683.882 448.12 683.69 447.581 683.69 446.888V442.664H682.218V441.304H682.634C683.029 441.304 683.322 441.197 683.514 440.984C683.717 440.76 683.818 440.472 683.818 440.12V438.872H685.194ZM689.764 444.36H693.972C693.95 443.784 693.758 443.315 693.396 442.952C693.033 442.579 692.521 442.392 691.86 442.392C691.262 442.392 690.772 442.589 690.388 442.984C690.004 443.368 689.796 443.827 689.764 444.36ZM694.196 446.36L695.492 446.808C695.268 447.523 694.852 448.109 694.244 448.568C693.636 449.016 692.9 449.24 692.036 449.24C690.958 449.24 690.041 448.872 689.284 448.136C688.537 447.389 688.164 446.387 688.164 445.128C688.164 443.955 688.526 442.984 689.252 442.216C689.977 441.448 690.841 441.064 691.844 441.064C693.006 441.064 693.913 441.432 694.564 442.168C695.214 442.893 695.54 443.869 695.54 445.096C695.54 445.288 695.529 445.448 695.508 445.576H689.716C689.726 446.259 689.95 446.819 690.388 447.256C690.836 447.693 691.385 447.912 692.036 447.912C693.134 447.912 693.854 447.395 694.196 446.36ZM701.732 441.224V442.824C701.508 442.792 701.289 442.776 701.076 442.776C699.668 442.776 698.964 443.565 698.964 445.144V449H697.46V441.304H698.932V442.648C699.401 441.667 700.169 441.176 701.236 441.176C701.406 441.176 701.572 441.192 701.732 441.224ZM704.233 444.36H708.441C708.419 443.784 708.227 443.315 707.865 442.952C707.502 442.579 706.99 442.392 706.329 442.392C705.731 442.392 705.241 442.589 704.857 442.984C704.473 443.368 704.265 443.827 704.233 444.36ZM708.665 446.36L709.961 446.808C709.737 447.523 709.321 448.109 708.713 448.568C708.105 449.016 707.369 449.24 706.505 449.24C705.427 449.24 704.51 448.872 703.753 448.136C703.006 447.389 702.633 446.387 702.633 445.128C702.633 443.955 702.995 442.984 703.721 442.216C704.446 441.448 705.31 441.064 706.313 441.064C707.475 441.064 708.382 441.432 709.033 442.168C709.683 442.893 710.009 443.869 710.009 445.096C710.009 445.288 709.998 445.448 709.977 445.576H704.185C704.195 446.259 704.419 446.819 704.857 447.256C705.305 447.693 705.854 447.912 706.505 447.912C707.603 447.912 708.323 447.395 708.665 446.36ZM711.208 447L712.568 446.52C712.622 446.936 712.803 447.283 713.112 447.56C713.422 447.827 713.838 447.96 714.36 447.96C714.766 447.96 715.086 447.864 715.32 447.672C715.555 447.469 715.672 447.224 715.672 446.936C715.672 446.424 715.342 446.093 714.68 445.944L713.368 445.656C712.771 445.528 712.302 445.272 711.96 444.888C711.619 444.504 711.448 444.04 711.448 443.496C711.448 442.835 711.715 442.264 712.248 441.784C712.792 441.304 713.438 441.064 714.184 441.064C714.675 441.064 715.112 441.139 715.496 441.288C715.88 441.427 716.179 441.613 716.392 441.848C716.606 442.083 716.766 442.301 716.872 442.504C716.979 442.707 717.059 442.915 717.112 443.128L715.784 443.624C715.763 443.496 715.726 443.373 715.672 443.256C715.619 443.128 715.534 442.989 715.416 442.84C715.31 442.691 715.15 442.573 714.936 442.488C714.723 442.392 714.472 442.344 714.184 442.344C713.811 442.344 713.502 442.445 713.256 442.648C713.022 442.851 712.904 443.091 712.904 443.368C712.904 443.859 713.198 444.168 713.784 444.296L715.032 444.568C715.715 444.717 716.238 444.995 716.6 445.4C716.974 445.795 717.16 446.28 717.16 446.856C717.16 447.464 716.91 448.013 716.408 448.504C715.918 448.995 715.23 449.24 714.344 449.24C713.395 449.24 712.654 449.005 712.12 448.536C711.587 448.056 711.283 447.544 711.208 447ZM721.179 438.872V441.304H722.843V442.664H721.179V446.664C721.179 447.027 721.259 447.293 721.419 447.464C721.589 447.635 721.867 447.72 722.251 447.72C722.475 447.72 722.672 447.699 722.843 447.656V448.936C722.587 449.032 722.245 449.08 721.819 449.08C721.157 449.08 720.635 448.888 720.251 448.504C719.867 448.12 719.675 447.581 719.675 446.888V442.664H718.203V441.304H718.619C719.013 441.304 719.307 441.197 719.499 440.984C719.701 440.76 719.803 440.472 719.803 440.12V438.872H721.179Z" fill="#4C5A7E"/>
<rect x="227" y="428" width="136" height="33" rx="16.5" fill="#E3E8EE"/>
<path d="M243.316 444.152L239.316 437.656H241.204L244.148 442.712L247.092 437.656H248.884L244.884 444.152V449H243.316V444.152ZM251.737 449H250.249V441.304H251.737V449ZM250.217 439.16C250.014 438.947 249.913 438.691 249.913 438.392C249.913 438.093 250.014 437.837 250.217 437.624C250.43 437.411 250.686 437.304 250.985 437.304C251.283 437.304 251.539 437.411 251.753 437.624C251.966 437.827 252.073 438.083 252.073 438.392C252.073 438.691 251.966 438.947 251.753 439.16C251.539 439.363 251.283 439.464 250.985 439.464C250.686 439.464 250.43 439.363 250.217 439.16ZM255.272 444.36H259.48C259.458 443.784 259.266 443.315 258.904 442.952C258.541 442.579 258.029 442.392 257.368 442.392C256.77 442.392 256.28 442.589 255.896 442.984C255.512 443.368 255.304 443.827 255.272 444.36ZM259.704 446.36L261 446.808C260.776 447.523 260.36 448.109 259.752 448.568C259.144 449.016 258.408 449.24 257.544 449.24C256.466 449.24 255.549 448.872 254.792 448.136C254.045 447.389 253.672 446.387 253.672 445.128C253.672 443.955 254.034 442.984 254.76 442.216C255.485 441.448 256.349 441.064 257.352 441.064C258.514 441.064 259.421 441.432 260.072 442.168C260.722 442.893 261.048 443.869 261.048 445.096C261.048 445.288 261.037 445.448 261.016 445.576H255.224C255.234 446.259 255.458 446.819 255.896 447.256C256.344 447.693 256.893 447.912 257.544 447.912C258.642 447.912 259.362 447.395 259.704 446.36ZM264.472 449H262.968V437.416H264.472V449ZM267.926 445.128C267.926 445.939 268.123 446.6 268.518 447.112C268.923 447.624 269.478 447.88 270.182 447.88C270.854 447.88 271.393 447.619 271.798 447.096C272.203 446.573 272.406 445.907 272.406 445.096C272.406 444.296 272.209 443.651 271.814 443.16C271.419 442.669 270.881 442.424 270.198 442.424C269.515 442.424 268.966 442.675 268.55 443.176C268.134 443.677 267.926 444.328 267.926 445.128ZM272.422 447.96V447.832C272.219 448.227 271.91 448.557 271.494 448.824C271.089 449.08 270.603 449.208 270.038 449.208C268.939 449.208 268.054 448.824 267.382 448.056C266.721 447.277 266.39 446.301 266.39 445.128C266.39 444.008 266.731 443.059 267.414 442.28C268.097 441.491 268.971 441.096 270.038 441.096C270.667 441.096 271.179 441.224 271.574 441.48C271.969 441.725 272.241 442.029 272.39 442.392V437.416H273.878V447.576C273.878 448.099 273.905 448.573 273.958 449H272.502C272.449 448.701 272.422 448.355 272.422 447.96ZM287.54 449L286.1 447.496C285.086 448.627 284.025 449.192 282.916 449.192C281.902 449.192 281.102 448.904 280.516 448.328C279.929 447.752 279.636 447.075 279.636 446.296C279.636 445.613 279.796 445.043 280.116 444.584C280.446 444.125 280.953 443.64 281.636 443.128L281.796 443L281.588 442.776C281.321 442.499 281.113 442.275 280.964 442.104C280.825 441.923 280.665 441.656 280.484 441.304C280.313 440.941 280.228 440.589 280.228 440.248C280.228 439.384 280.521 438.696 281.108 438.184C281.705 437.672 282.388 437.416 283.156 437.416C284.03 437.416 284.75 437.672 285.316 438.184C285.881 438.685 286.164 439.352 286.164 440.184C286.164 441.069 285.63 441.907 284.564 442.696L283.988 443.128L286.1 445.32L288.628 442.504V444.568L287.092 446.344L289.668 449H287.54ZM282.932 447.752C283.326 447.752 283.684 447.645 284.004 447.432C284.334 447.219 284.681 446.909 285.044 446.504L285.092 446.44L282.788 444.024L282.212 444.456C281.572 444.947 281.252 445.517 281.252 446.168C281.252 446.573 281.406 446.941 281.716 447.272C282.036 447.592 282.441 447.752 282.932 447.752ZM281.78 440.152C281.78 440.611 282.068 441.139 282.644 441.736L282.996 442.12L283.764 441.544C284.329 441.128 284.612 440.659 284.612 440.136C284.612 439.752 284.473 439.427 284.196 439.16C283.929 438.893 283.588 438.76 283.172 438.76C282.809 438.76 282.484 438.888 282.196 439.144C281.918 439.389 281.78 439.725 281.78 440.152ZM298.583 441.224V442.824C298.359 442.792 298.141 442.776 297.927 442.776C296.519 442.776 295.815 443.565 295.815 445.144V449H294.311V441.304H295.783V442.648C296.253 441.667 297.021 441.176 298.087 441.176C298.258 441.176 298.423 441.192 298.583 441.224ZM301.084 444.36H305.292C305.271 443.784 305.079 443.315 304.716 442.952C304.353 442.579 303.841 442.392 303.18 442.392C302.583 442.392 302.092 442.589 301.708 442.984C301.324 443.368 301.116 443.827 301.084 444.36ZM305.516 446.36L306.812 446.808C306.588 447.523 306.172 448.109 305.564 448.568C304.956 449.016 304.22 449.24 303.356 449.24C302.279 449.24 301.361 448.872 300.604 448.136C299.857 447.389 299.484 446.387 299.484 445.128C299.484 443.955 299.847 442.984 300.572 442.216C301.297 441.448 302.161 441.064 303.164 441.064C304.327 441.064 305.233 441.432 305.884 442.168C306.535 442.893 306.86 443.869 306.86 445.096C306.86 445.288 306.849 445.448 306.828 445.576H301.036C301.047 446.259 301.271 446.819 301.708 447.256C302.156 447.693 302.705 447.912 303.356 447.912C304.455 447.912 305.175 447.395 305.516 446.36ZM313.038 441.304H314.59L316.59 447.096L318.286 441.304H319.87L317.374 449H315.822L313.774 443.144L311.774 449H310.19L307.662 441.304H309.31L311.038 447.096L313.038 441.304ZM320.831 446.936C320.831 446.275 321.045 445.747 321.471 445.352C321.898 444.947 322.463 444.696 323.167 444.6L325.247 444.296C325.642 444.243 325.839 444.051 325.839 443.72C325.839 443.315 325.701 442.984 325.423 442.728C325.146 442.472 324.73 442.344 324.175 442.344C323.663 442.344 323.258 442.488 322.959 442.776C322.661 443.053 322.485 443.427 322.431 443.896L320.991 443.56C321.066 442.824 321.402 442.227 321.999 441.768C322.597 441.299 323.311 441.064 324.143 441.064C325.231 441.064 326.037 441.331 326.559 441.864C327.082 442.387 327.343 443.059 327.343 443.88V447.736C327.343 448.195 327.375 448.616 327.439 449H325.967C325.914 448.68 325.887 448.333 325.887 447.96C325.674 448.301 325.359 448.6 324.943 448.856C324.538 449.112 324.026 449.24 323.407 449.24C322.65 449.24 322.031 449.016 321.551 448.568C321.071 448.109 320.831 447.565 320.831 446.936ZM323.615 447.976C324.287 447.976 324.826 447.795 325.231 447.432C325.637 447.069 325.839 446.493 325.839 445.704V445.352L323.487 445.704C323.146 445.757 322.874 445.88 322.671 446.072C322.469 446.264 322.367 446.525 322.367 446.856C322.367 447.155 322.479 447.416 322.703 447.64C322.938 447.864 323.242 447.976 323.615 447.976ZM333.958 441.224V442.824C333.734 442.792 333.516 442.776 333.302 442.776C331.894 442.776 331.19 443.565 331.19 445.144V449H329.686V441.304H331.158V442.648C331.628 441.667 332.396 441.176 333.462 441.176C333.633 441.176 333.798 441.192 333.958 441.224ZM336.379 445.128C336.379 445.939 336.576 446.6 336.971 447.112C337.376 447.624 337.931 447.88 338.635 447.88C339.307 447.88 339.846 447.619 340.251 447.096C340.656 446.573 340.859 445.907 340.859 445.096C340.859 444.296 340.662 443.651 340.267 443.16C339.872 442.669 339.334 442.424 338.651 442.424C337.968 442.424 337.419 442.675 337.003 443.176C336.587 443.677 336.379 444.328 336.379 445.128ZM340.875 447.96V447.832C340.672 448.227 340.363 448.557 339.947 448.824C339.542 449.08 339.056 449.208 338.491 449.208C337.392 449.208 336.507 448.824 335.835 448.056C335.174 447.277 334.843 446.301 334.843 445.128C334.843 444.008 335.184 443.059 335.867 442.28C336.55 441.491 337.424 441.096 338.491 441.096C339.12 441.096 339.632 441.224 340.027 441.48C340.422 441.725 340.694 442.029 340.843 442.392V437.416H342.331V447.576C342.331 448.099 342.358 448.573 342.411 449H340.955C340.902 448.701 340.875 448.355 340.875 447.96ZM344.169 447L345.529 446.52C345.583 446.936 345.764 447.283 346.073 447.56C346.383 447.827 346.799 447.96 347.321 447.96C347.727 447.96 348.047 447.864 348.281 447.672C348.516 447.469 348.633 447.224 348.633 446.936C348.633 446.424 348.303 446.093 347.641 445.944L346.329 445.656C345.732 445.528 345.263 445.272 344.921 444.888C344.58 444.504 344.409 444.04 344.409 443.496C344.409 442.835 344.676 442.264 345.209 441.784C345.753 441.304 346.399 441.064 347.145 441.064C347.636 441.064 348.073 441.139 348.457 441.288C348.841 441.427 349.14 441.613 349.353 441.848C349.567 442.083 349.727 442.301 349.833 442.504C349.94 442.707 350.02 442.915 350.073 443.128L348.745 443.624C348.724 443.496 348.687 443.373 348.633 443.256C348.58 443.128 348.495 442.989 348.377 442.84C348.271 442.691 348.111 442.573 347.897 442.488C347.684 442.392 347.433 442.344 347.145 442.344C346.772 442.344 346.463 442.445 346.217 442.648C345.983 442.851 345.865 443.091 345.865 443.368C345.865 443.859 346.159 444.168 346.745 444.296L347.993 444.568C348.676 444.717 349.199 444.995 349.561 445.4C349.935 445.795 350.121 446.28 350.121 446.856C350.121 447.464 349.871 448.013 349.369 448.504C348.879 448.995 348.191 449.24 347.305 449.24C346.356 449.24 345.615 449.005 345.081 448.536C344.548 448.056 344.244 447.544 344.169 447Z" fill="#4C5A7E"/>
<defs>
<filter id="filter0_dd_313_1495" x="0" y="189" width="264" height="186" filterUnits="userSpaceOnUse" color-interpolation-filters="sRGB">
<feFlood flood-opacity="0" result="BackgroundImageFix"/>
<feColorMatrix in="SourceAlpha" type="matrix" values="0 0 0 0 0 0 0 0 0 0 0 0 0 0 0 0 0 0 127 0" result="hardAlpha"/>
<feOffset dy="16"/>
<feGaussianBlur stdDeviation="16"/>
<feComposite in2="hardAlpha" operator="out"/>
<feColorMatrix type="matrix" values="0 0 0 0 0 0 0 0 0 0 0 0 0 0 0 0 0 0 0.1 0"/>
<feBlend mode="normal" in2="BackgroundImageFix" result="effect1_dropShadow_313_1495"/>
<feColorMatrix in="SourceAlpha" type="matrix" values="0 0 0 0 0 0 0 0 0 0 0 0 0 0 0 0 0 0 127 0" result="hardAlpha"/>
<feOffset dy="1"/>
<feGaussianBlur stdDeviation="2"/>
<feComposite in2="hardAlpha" operator="out"/>
<feColorMatrix type="matrix" values="0 0 0 0 0 0 0 0 0 0 0 0 0 0 0 0 0 0 0.1 0"/>
<feBlend mode="normal" in2="effect1_dropShadow_313_1495" result="effect2_dropShadow_313_1495"/>
<feBlend mode="normal" in="SourceGraphic" in2="effect2_dropShadow_313_1495" result="shape"/>
</filter>
<filter id="filter1_dd_313_1495" x="727" y="189" width="264" height="186" filterUnits="userSpaceOnUse" color-interpolation-filters="sRGB">
<feFlood flood-opacity="0" result="BackgroundImageFix"/>
<feColorMatrix in="SourceAlpha" type="matrix" values="0 0 0 0 0 0 0 0 0 0 0 0 0 0 0 0 0 0 127 0" result="hardAlpha"/>
<feOffset dy="16"/>
<feGaussianBlur stdDeviation="16"/>
<feComposite in2="hardAlpha" operator="out"/>
<feColorMatrix type="matrix" values="0 0 0 0 0 0 0 0 0 0 0 0 0 0 0 0 0 0 0.1 0"/>
<feBlend mode="normal" in2="BackgroundImageFix" result="effect1_dropShadow_313_1495"/>
<feColorMatrix in="SourceAlpha" type="matrix" values="0 0 0 0 0 0 0 0 0 0 0 0 0 0 0 0 0 0 127 0" result="hardAlpha"/>
<feOffset dy="1"/>
<feGaussianBlur stdDeviation="2"/>
<feComposite in2="hardAlpha" operator="out"/>
<feColorMatrix type="matrix" values="0 0 0 0 0 0 0 0 0 0 0 0 0 0 0 0 0 0 0.1 0"/>
<feBlend mode="normal" in2="effect1_dropShadow_313_1495" result="effect2_dropShadow_313_1495"/>
<feBlend mode="normal" in="SourceGraphic" in2="effect2_dropShadow_313_1495" result="shape"/>
</filter>
<filter id="filter2_dd_313_1495" x="364" y="150" width="264" height="264" filterUnits="userSpaceOnUse" color-interpolation-filters="sRGB">
<feFlood flood-opacity="0" result="BackgroundImageFix"/>
<feColorMatrix in="SourceAlpha" type="matrix" values="0 0 0 0 0 0 0 0 0 0 0 0 0 0 0 0 0 0 127 0" result="hardAlpha"/>
<feOffset dy="16"/>
<feGaussianBlur stdDeviation="16"/>
<feComposite in2="hardAlpha" operator="out"/>
<feColorMatrix type="matrix" values="0 0 0 0 0 0 0 0 0 0 0 0 0 0 0 0 0 0 0.1 0"/>
<feBlend mode="normal" in2="BackgroundImageFix" result="effect1_dropShadow_313_1495"/>
<feColorMatrix in="SourceAlpha" type="matrix" values="0 0 0 0 0 0 0 0 0 0 0 0 0 0 0 0 0 0 127 0" result="hardAlpha"/>
<feOffset dy="1"/>
<feGaussianBlur stdDeviation="2"/>
<feComposite in2="hardAlpha" operator="out"/>
<feColorMatrix type="matrix" values="0 0 0 0 0 0 0 0 0 0 0 0 0 0 0 0 0 0 0.1 0"/>
<feBlend mode="normal" in2="effect1_dropShadow_313_1495" result="effect2_dropShadow_313_1495"/>
<feBlend mode="normal" in="SourceGraphic" in2="effect2_dropShadow_313_1495" result="shape"/>
</filter>
<linearGradient id="paint0_linear_313_1495" x1="839.549" y1="434.868" x2="963.174" y2="249.797" gradientUnits="userSpaceOnUse">
<stop stop-color="#0EC9C9"/>
<stop offset="1" stop-color="#C90E7E"/>
</linearGradient>
<linearGradient id="paint1_linear_313_1495" x1="112.549" y1="349.434" x2="152.76" y2="229.039" gradientUnits="userSpaceOnUse">
<stop stop-color="#0EC9C9"/>
<stop offset="1" stop-color="#C90E7E"/>
</linearGradient>
</defs>
</svg>
