<svg width="158" height="159" viewBox="0 0 158 159" fill="none" xmlns="http://www.w3.org/2000/svg">
<path d="M117.604 79.6514L144.365 52.8898L150.198 58.8368L148.826 103.44L129.498 136.148L83.4084 152.388L39.0344 140.494L13.6451 110.759L41.7792 82.6249L62.5938 98.9793L98.276 63.2971L117.604 79.6514Z" fill="#C90E7E"/>
<path d="M38.8146 81.1379L12.053 107.9L6.22034 92.6888L7.59273 57.3498L26.9206 24.6411L73.0101 5.31323L120.472 17.2073L145.861 46.9424L114.639 78.1644L93.8247 61.81L58.1425 97.4922L38.8146 81.1379Z" fill="#3B185F"/>
<path fill-rule="evenodd" clip-rule="evenodd" d="M157.686 79.6521C157.686 123.14 122.433 158.393 78.9451 158.393C35.4576 158.393 0.204102 123.14 0.204102 79.6521C0.204102 36.1647 35.4576 0.911133 78.9451 0.911133C122.433 0.911133 157.686 36.1647 157.686 79.6521ZM135.287 51.5171C137.865 48.9576 138.497 44.9794 136.504 41.9425C124.208 23.2066 103.014 10.834 78.9292 10.834C40.9234 10.834 10.1136 41.6438 10.1136 79.6496C10.1136 82.9464 10.3454 86.189 10.7937 89.3621C11.309 93.0104 15.7013 94.2307 18.3144 91.6331L35.3055 74.7425C37.7859 72.2769 41.7927 72.28 44.2692 74.7495L58.548 88.9881L86.6696 61.0506L71.9228 46.384C69.6706 44.144 69.6704 40.4992 71.9226 38.259C74.1571 36.0363 77.7672 36.0356 80.0027 38.2574L109.737 67.7917C112.405 70.4596 116.23 70.4596 118.898 67.7917L135.287 51.5171ZM139.098 65.1074C141.652 62.5468 145.973 63.649 146.623 67.2069C147.36 71.2426 147.745 75.4011 147.745 79.6496C147.745 117.655 116.935 148.465 78.9292 148.465C54.063 148.465 32.2772 135.276 20.1855 115.512C18.3446 112.503 19.0002 108.666 21.4885 106.165L35.7623 91.8219C38.5962 88.9881 42.105 88.9881 44.9376 91.8207L74.6169 121.583C76.8626 123.834 80.5092 123.836 82.757 121.587C85.0003 119.342 85.0014 115.704 82.7595 113.458L67.971 98.642L96.0893 70.4596L110.451 84.8196C112.934 87.3023 116.96 87.2997 119.439 84.8139L139.098 65.1074Z" fill="white"/>
</svg>
