<svg width="27" height="23" viewBox="0 0 27 23" fill="none" xmlns="http://www.w3.org/2000/svg">
<path d="M24.2051 6.39062C24.2051 6.6543 24.2051 6.86523 24.2051 7.12891C24.2051 14.459 18.668 22.8438 8.49023 22.8438C5.32617 22.8438 2.42578 21.9473 0 20.3652C0.421875 20.418 0.84375 20.4707 1.31836 20.4707C3.90234 20.4707 6.27539 19.5742 8.17383 18.0977C5.74805 18.0449 3.69141 16.4629 3.00586 14.248C3.375 14.3008 3.69141 14.3535 4.06055 14.3535C4.53516 14.3535 5.0625 14.248 5.48438 14.1426C2.95312 13.6152 1.05469 11.4004 1.05469 8.71094V8.6582C1.79297 9.08008 2.68945 9.29102 3.58594 9.34375C2.05664 8.3418 1.10742 6.6543 1.10742 4.75586C1.10742 3.70117 1.37109 2.75195 1.8457 1.96094C4.58789 5.2832 8.70117 7.49805 13.2891 7.76172C13.1836 7.33984 13.1309 6.91797 13.1309 6.49609C13.1309 3.4375 15.6094 0.958984 18.668 0.958984C20.25 0.958984 21.6738 1.5918 22.7285 2.69922C23.9414 2.43555 25.1543 1.96094 26.209 1.32812C25.7871 2.64648 24.9434 3.70117 23.7832 4.38672C24.8906 4.28125 25.998 3.96484 26.9473 3.54297C26.209 4.65039 25.2598 5.59961 24.2051 6.39062Z" fill="#E3E8EE"/>
</svg>
